<svg xmlns="http://www.w3.org/2000/svg" width="1380" height="430" viewBox="0 0 1380 430">
<rect width="100%" height="100%" fill="white" />
<text x="690" y="28" font-size="20" text-anchor="middle" font-family="Arial">Best Tuned Model Losses on a Shared Y-Axis</text>
<text x="25" y="210" font-size="14" text-anchor="middle" transform="rotate(-90 25 210)" font-family="Arial">MSE</text>
<text x="260.0" y="45" font-size="16" text-anchor="middle" font-family="Arial">Training Loss</text>
<line x1="65" y1="305.00" x2="455" y2="305.00" stroke="#dddddd" stroke-width="1" />
<text x="57" y="309.00" font-size="10" text-anchor="end" font-family="Arial">0.00e+00</text>
<line x1="65" y1="242.50" x2="455" y2="242.50" stroke="#dddddd" stroke-width="1" />
<text x="57" y="246.50" font-size="10" text-anchor="end" font-family="Arial">3.87e-05</text>
<line x1="65" y1="180.00" x2="455" y2="180.00" stroke="#dddddd" stroke-width="1" />
<text x="57" y="184.00" font-size="10" text-anchor="end" font-family="Arial">7.74e-05</text>
<line x1="65" y1="117.50" x2="455" y2="117.50" stroke="#dddddd" stroke-width="1" />
<text x="57" y="121.50" font-size="10" text-anchor="end" font-family="Arial">1.16e-04</text>
<line x1="65" y1="55.00" x2="455" y2="55.00" stroke="#dddddd" stroke-width="1" />
<text x="57" y="59.00" font-size="10" text-anchor="end" font-family="Arial">1.55e-04</text>
<line x1="65" y1="55" x2="65" y2="305" stroke="#333333" stroke-width="1" />
<line x1="65" y1="305" x2="455" y2="305" stroke="#333333" stroke-width="1" />
<rect x="83.00" y="66.90" width="56.40" height="238.10" fill="#4C78A8" />
<text x="111.20" y="60.90" font-size="10" text-anchor="middle" font-family="Arial">1.47e-04</text>
<text x="111.20" y="325.00" font-size="11" text-anchor="middle" font-family="Arial">LSTM</text>
<rect x="157.40" y="283.77" width="56.40" height="21.23" fill="#59A14F" />
<text x="185.60" y="277.77" font-size="10" text-anchor="middle" font-family="Arial">1.31e-05</text>
<text x="185.60" y="325.00" font-size="11" text-anchor="middle" font-family="Arial">Baseline-LR</text>
<rect x="231.80" y="273.29" width="56.40" height="31.71" fill="#F28E2B" />
<text x="260.00" y="267.29" font-size="10" text-anchor="middle" font-family="Arial">1.96e-05</text>
<text x="260.00" y="325.00" font-size="11" text-anchor="middle" font-family="Arial">RNN</text>
<rect x="306.20" y="256.44" width="56.40" height="48.56" fill="#E15759" />
<text x="334.40" y="250.44" font-size="10" text-anchor="middle" font-family="Arial">3.01e-05</text>
<text x="334.40" y="325.00" font-size="11" text-anchor="middle" font-family="Arial">Transformer</text>
<rect x="380.60" y="277.65" width="56.40" height="27.35" fill="#4C78A8" />
<text x="408.80" y="271.65" font-size="10" text-anchor="middle" font-family="Arial">1.69e-05</text>
<text x="408.80" y="325.00" font-size="11" text-anchor="middle" font-family="Arial">GRU</text>
<text x="260.0" y="412" font-size="12" text-anchor="middle" font-family="Arial">Model</text>
<text x="690.0" y="45" font-size="16" text-anchor="middle" font-family="Arial">Testing Loss</text>
<line x1="495" y1="305.00" x2="885" y2="305.00" stroke="#dddddd" stroke-width="1" />
<line x1="495" y1="242.50" x2="885" y2="242.50" stroke="#dddddd" stroke-width="1" />
<line x1="495" y1="180.00" x2="885" y2="180.00" stroke="#dddddd" stroke-width="1" />
<line x1="495" y1="117.50" x2="885" y2="117.50" stroke="#dddddd" stroke-width="1" />
<line x1="495" y1="55.00" x2="885" y2="55.00" stroke="#dddddd" stroke-width="1" />
<line x1="495" y1="55" x2="495" y2="305" stroke="#333333" stroke-width="1" />
<line x1="495" y1="305" x2="885" y2="305" stroke="#333333" stroke-width="1" />
<rect x="513.00" y="273.34" width="56.40" height="31.66" fill="#4C78A8" />
<text x="541.20" y="267.34" font-size="10" text-anchor="middle" font-family="Arial">1.96e-05</text>
<text x="541.20" y="325.00" font-size="11" text-anchor="middle" font-family="Arial">LSTM</text>
<rect x="587.40" y="275.09" width="56.40" height="29.91" fill="#59A14F" />
<text x="615.60" y="269.09" font-size="10" text-anchor="middle" font-family="Arial">1.85e-05</text>
<text x="615.60" y="325.00" font-size="11" text-anchor="middle" font-family="Arial">Baseline-LR</text>
<rect x="661.80" y="274.28" width="56.40" height="30.72" fill="#F28E2B" />
<text x="690.00" y="268.28" font-size="10" text-anchor="middle" font-family="Arial">1.90e-05</text>
<text x="690.00" y="325.00" font-size="11" text-anchor="middle" font-family="Arial">RNN</text>
<rect x="736.20" y="273.31" width="56.40" height="31.69" fill="#E15759" />
<text x="764.40" y="267.31" font-size="10" text-anchor="middle" font-family="Arial">1.96e-05</text>
<text x="764.40" y="325.00" font-size="11" text-anchor="middle" font-family="Arial">Transformer</text>
<rect x="810.60" y="273.17" width="56.40" height="31.83" fill="#4C78A8" />
<text x="838.80" y="267.17" font-size="10" text-anchor="middle" font-family="Arial">1.97e-05</text>
<text x="838.80" y="325.00" font-size="11" text-anchor="middle" font-family="Arial">GRU</text>
<text x="690.0" y="412" font-size="12" text-anchor="middle" font-family="Arial">Model</text>
<text x="1120.0" y="45" font-size="16" text-anchor="middle" font-family="Arial">Validation Loss</text>
<line x1="925" y1="305.00" x2="1315" y2="305.00" stroke="#dddddd" stroke-width="1" />
<line x1="925" y1="242.50" x2="1315" y2="242.50" stroke="#dddddd" stroke-width="1" />
<line x1="925" y1="180.00" x2="1315" y2="180.00" stroke="#dddddd" stroke-width="1" />
<line x1="925" y1="117.50" x2="1315" y2="117.50" stroke="#dddddd" stroke-width="1" />
<line x1="925" y1="55.00" x2="1315" y2="55.00" stroke="#dddddd" stroke-width="1" />
<line x1="925" y1="55" x2="925" y2="305" stroke="#333333" stroke-width="1" />
<line x1="925" y1="305" x2="1315" y2="305" stroke="#333333" stroke-width="1" />
<rect x="943.00" y="242.51" width="56.40" height="62.49" fill="#4C78A8" />
<text x="971.20" y="236.51" font-size="10" text-anchor="middle" font-family="Arial">3.87e-05</text>
<text x="971.20" y="325.00" font-size="11" text-anchor="middle" font-family="Arial">LSTM</text>
<rect x="1017.40" y="235.07" width="56.40" height="69.93" fill="#59A14F" />
<text x="1045.60" y="229.07" font-size="10" text-anchor="middle" font-family="Arial">4.33e-05</text>
<text x="1045.60" y="325.00" font-size="11" text-anchor="middle" font-family="Arial">Baseline-LR</text>
<rect x="1091.80" y="231.33" width="56.40" height="73.67" fill="#F28E2B" />
<text x="1120.00" y="225.33" font-size="10" text-anchor="middle" font-family="Arial">4.56e-05</text>
<text x="1120.00" y="325.00" font-size="11" text-anchor="middle" font-family="Arial">RNN</text>
<rect x="1166.20" y="226.17" width="56.40" height="78.83" fill="#E15759" />
<text x="1194.40" y="220.17" font-size="10" text-anchor="middle" font-family="Arial">4.88e-05</text>
<text x="1194.40" y="325.00" font-size="11" text-anchor="middle" font-family="Arial">Transformer</text>
<rect x="1240.60" y="214.79" width="56.40" height="90.21" fill="#4C78A8" />
<text x="1268.80" y="208.79" font-size="10" text-anchor="middle" font-family="Arial">5.59e-05</text>
<text x="1268.80" y="325.00" font-size="11" text-anchor="middle" font-family="Arial">GRU</text>
<text x="1120.0" y="412" font-size="12" text-anchor="middle" font-family="Arial">Model</text>
</svg>