<svg xmlns="http://www.w3.org/2000/svg" width="1380" height="430" viewBox="0 0 1380 430">
<rect width="100%" height="100%" fill="white" />
<text x="690" y="28" font-size="20" text-anchor="middle" font-family="Arial">Best Tuned Model Losses on a Shared Y-Axis</text>
<text x="25" y="210" font-size="14" text-anchor="middle" transform="rotate(-90 25 210)" font-family="Arial">MSE</text>
<text x="260.0" y="45" font-size="16" text-anchor="middle" font-family="Arial">Training Loss</text>
<line x1="65" y1="305.00" x2="455" y2="305.00" stroke="#dddddd" stroke-width="1" />
<text x="57" y="309.00" font-size="10" text-anchor="end" font-family="Arial">0.00e+00</text>
<line x1="65" y1="242.50" x2="455" y2="242.50" stroke="#dddddd" stroke-width="1" />
<text x="57" y="246.50" font-size="10" text-anchor="end" font-family="Arial">9.78e-05</text>
<line x1="65" y1="180.00" x2="455" y2="180.00" stroke="#dddddd" stroke-width="1" />
<text x="57" y="184.00" font-size="10" text-anchor="end" font-family="Arial">1.96e-04</text>
<line x1="65" y1="117.50" x2="455" y2="117.50" stroke="#dddddd" stroke-width="1" />
<text x="57" y="121.50" font-size="10" text-anchor="end" font-family="Arial">2.94e-04</text>
<line x1="65" y1="55.00" x2="455" y2="55.00" stroke="#dddddd" stroke-width="1" />
<text x="57" y="59.00" font-size="10" text-anchor="end" font-family="Arial">3.91e-04</text>
<line x1="65" y1="55" x2="65" y2="305" stroke="#333333" stroke-width="1" />
<line x1="65" y1="305" x2="455" y2="305" stroke="#333333" stroke-width="1" />
<rect x="83.00" y="191.04" width="56.40" height="113.96" fill="#4C78A8" />
<text x="111.20" y="185.04" font-size="10" text-anchor="middle" font-family="Arial">1.78e-04</text>
<text x="111.20" y="325.00" font-size="11" text-anchor="middle" font-family="Arial">GRU</text>
<rect x="157.40" y="216.31" width="56.40" height="88.69" fill="#59A14F" />
<text x="185.60" y="210.31" font-size="10" text-anchor="middle" font-family="Arial">1.39e-04</text>
<text x="185.60" y="325.00" font-size="11" text-anchor="middle" font-family="Arial">LSTM</text>
<rect x="231.80" y="204.64" width="56.40" height="100.36" fill="#F28E2B" />
<text x="260.00" y="198.64" font-size="10" text-anchor="middle" font-family="Arial">1.57e-04</text>
<text x="260.00" y="325.00" font-size="11" text-anchor="middle" font-family="Arial">RNN</text>
<rect x="306.20" y="147.12" width="56.40" height="157.88" fill="#E15759" />
<text x="334.40" y="141.12" font-size="10" text-anchor="middle" font-family="Arial">2.47e-04</text>
<text x="334.40" y="325.00" font-size="11" text-anchor="middle" font-family="Arial">Transformer</text>
<rect x="380.60" y="237.16" width="56.40" height="67.84" fill="#4C78A8" />
<text x="408.80" y="231.16" font-size="10" text-anchor="middle" font-family="Arial">1.06e-04</text>
<text x="408.80" y="325.00" font-size="11" text-anchor="middle" font-family="Arial">Baseline-LR</text>
<text x="260.0" y="412" font-size="12" text-anchor="middle" font-family="Arial">Model</text>
<text x="690.0" y="45" font-size="16" text-anchor="middle" font-family="Arial">Testing Loss</text>
<line x1="495" y1="305.00" x2="885" y2="305.00" stroke="#dddddd" stroke-width="1" />
<line x1="495" y1="242.50" x2="885" y2="242.50" stroke="#dddddd" stroke-width="1" />
<line x1="495" y1="180.00" x2="885" y2="180.00" stroke="#dddddd" stroke-width="1" />
<line x1="495" y1="117.50" x2="885" y2="117.50" stroke="#dddddd" stroke-width="1" />
<line x1="495" y1="55.00" x2="885" y2="55.00" stroke="#dddddd" stroke-width="1" />
<line x1="495" y1="55" x2="495" y2="305" stroke="#333333" stroke-width="1" />
<line x1="495" y1="305" x2="885" y2="305" stroke="#333333" stroke-width="1" />
<rect x="513.00" y="244.57" width="56.40" height="60.43" fill="#4C78A8" />
<text x="541.20" y="238.57" font-size="10" text-anchor="middle" font-family="Arial">9.46e-05</text>
<text x="541.20" y="325.00" font-size="11" text-anchor="middle" font-family="Arial">GRU</text>
<rect x="587.40" y="242.52" width="56.40" height="62.48" fill="#59A14F" />
<text x="615.60" y="236.52" font-size="10" text-anchor="middle" font-family="Arial">9.78e-05</text>
<text x="615.60" y="325.00" font-size="11" text-anchor="middle" font-family="Arial">LSTM</text>
<rect x="661.80" y="239.02" width="56.40" height="65.98" fill="#F28E2B" />
<text x="690.00" y="233.02" font-size="10" text-anchor="middle" font-family="Arial">1.03e-04</text>
<text x="690.00" y="325.00" font-size="11" text-anchor="middle" font-family="Arial">RNN</text>
<rect x="736.20" y="208.01" width="56.40" height="96.99" fill="#E15759" />
<text x="764.40" y="202.01" font-size="10" text-anchor="middle" font-family="Arial">1.52e-04</text>
<text x="764.40" y="325.00" font-size="11" text-anchor="middle" font-family="Arial">Transformer</text>
<rect x="810.60" y="227.22" width="56.40" height="77.78" fill="#4C78A8" />
<text x="838.80" y="221.22" font-size="10" text-anchor="middle" font-family="Arial">1.22e-04</text>
<text x="838.80" y="325.00" font-size="11" text-anchor="middle" font-family="Arial">Baseline-LR</text>
<text x="690.0" y="412" font-size="12" text-anchor="middle" font-family="Arial">Model</text>
<text x="1120.0" y="45" font-size="16" text-anchor="middle" font-family="Arial">Validation Loss</text>
<line x1="925" y1="305.00" x2="1315" y2="305.00" stroke="#dddddd" stroke-width="1" />
<line x1="925" y1="242.50" x2="1315" y2="242.50" stroke="#dddddd" stroke-width="1" />
<line x1="925" y1="180.00" x2="1315" y2="180.00" stroke="#dddddd" stroke-width="1" />
<line x1="925" y1="117.50" x2="1315" y2="117.50" stroke="#dddddd" stroke-width="1" />
<line x1="925" y1="55.00" x2="1315" y2="55.00" stroke="#dddddd" stroke-width="1" />
<line x1="925" y1="55" x2="925" y2="305" stroke="#333333" stroke-width="1" />
<line x1="925" y1="305" x2="1315" y2="305" stroke="#333333" stroke-width="1" />
<rect x="943.00" y="142.82" width="56.40" height="162.18" fill="#4C78A8" />
<text x="971.20" y="136.82" font-size="10" text-anchor="middle" font-family="Arial">2.54e-04</text>
<text x="971.20" y="325.00" font-size="11" text-anchor="middle" font-family="Arial">GRU</text>
<rect x="1017.40" y="139.21" width="56.40" height="165.79" fill="#59A14F" />
<text x="1045.60" y="133.21" font-size="10" text-anchor="middle" font-family="Arial">2.60e-04</text>
<text x="1045.60" y="325.00" font-size="11" text-anchor="middle" font-family="Arial">LSTM</text>
<rect x="1091.80" y="132.18" width="56.40" height="172.82" fill="#F28E2B" />
<text x="1120.00" y="126.18" font-size="10" text-anchor="middle" font-family="Arial">2.71e-04</text>
<text x="1120.00" y="325.00" font-size="11" text-anchor="middle" font-family="Arial">RNN</text>
<rect x="1166.20" y="117.85" width="56.40" height="187.15" fill="#E15759" />
<text x="1194.40" y="111.85" font-size="10" text-anchor="middle" font-family="Arial">2.93e-04</text>
<text x="1194.40" y="325.00" font-size="11" text-anchor="middle" font-family="Arial">Transformer</text>
<rect x="1240.60" y="66.90" width="56.40" height="238.10" fill="#4C78A8" />
<text x="1268.80" y="60.90" font-size="10" text-anchor="middle" font-family="Arial">3.73e-04</text>
<text x="1268.80" y="325.00" font-size="11" text-anchor="middle" font-family="Arial">Baseline-LR</text>
<text x="1120.0" y="412" font-size="12" text-anchor="middle" font-family="Arial">Model</text>
</svg>