<svg xmlns="http://www.w3.org/2000/svg" width="1380" height="430" viewBox="0 0 1380 430">
<rect width="100%" height="100%" fill="white" />
<text x="690" y="28" font-size="20" text-anchor="middle" font-family="Arial">Best Tuned Model Losses on a Shared Y-Axis</text>
<text x="25" y="210" font-size="14" text-anchor="middle" transform="rotate(-90 25 210)" font-family="Arial">MSE</text>
<text x="260.0" y="45" font-size="16" text-anchor="middle" font-family="Arial">Training Loss</text>
<line x1="65" y1="305.00" x2="455" y2="305.00" stroke="#dddddd" stroke-width="1" />
<text x="57" y="309.00" font-size="10" text-anchor="end" font-family="Arial">0.00e+00</text>
<line x1="65" y1="242.50" x2="455" y2="242.50" stroke="#dddddd" stroke-width="1" />
<text x="57" y="246.50" font-size="10" text-anchor="end" font-family="Arial">1.35e-04</text>
<line x1="65" y1="180.00" x2="455" y2="180.00" stroke="#dddddd" stroke-width="1" />
<text x="57" y="184.00" font-size="10" text-anchor="end" font-family="Arial">2.70e-04</text>
<line x1="65" y1="117.50" x2="455" y2="117.50" stroke="#dddddd" stroke-width="1" />
<text x="57" y="121.50" font-size="10" text-anchor="end" font-family="Arial">4.06e-04</text>
<line x1="65" y1="55.00" x2="455" y2="55.00" stroke="#dddddd" stroke-width="1" />
<text x="57" y="59.00" font-size="10" text-anchor="end" font-family="Arial">5.41e-04</text>
<line x1="65" y1="55" x2="65" y2="305" stroke="#333333" stroke-width="1" />
<line x1="65" y1="305" x2="455" y2="305" stroke="#333333" stroke-width="1" />
<rect x="83.00" y="294.89" width="56.40" height="10.11" fill="#4C78A8" />
<text x="111.20" y="288.89" font-size="10" text-anchor="middle" font-family="Arial">2.19e-05</text>
<text x="111.20" y="325.00" font-size="11" text-anchor="middle" font-family="Arial">GRU</text>
<rect x="157.40" y="66.90" width="56.40" height="238.10" fill="#59A14F" />
<text x="185.60" y="60.90" font-size="10" text-anchor="middle" font-family="Arial">5.15e-04</text>
<text x="185.60" y="325.00" font-size="11" text-anchor="middle" font-family="Arial">LSTM</text>
<rect x="231.80" y="292.58" width="56.40" height="12.42" fill="#F28E2B" />
<text x="260.00" y="286.58" font-size="10" text-anchor="middle" font-family="Arial">2.69e-05</text>
<text x="260.00" y="325.00" font-size="11" text-anchor="middle" font-family="Arial">RNN</text>
<rect x="306.20" y="296.93" width="56.40" height="8.07" fill="#E15759" />
<text x="334.40" y="290.93" font-size="10" text-anchor="middle" font-family="Arial">1.75e-05</text>
<text x="334.40" y="325.00" font-size="11" text-anchor="middle" font-family="Arial">Baseline-LR</text>
<rect x="380.60" y="242.08" width="56.40" height="62.92" fill="#4C78A8" />
<text x="408.80" y="236.08" font-size="10" text-anchor="middle" font-family="Arial">1.36e-04</text>
<text x="408.80" y="325.00" font-size="11" text-anchor="middle" font-family="Arial">Transformer</text>
<text x="260.0" y="412" font-size="12" text-anchor="middle" font-family="Arial">Model</text>
<text x="690.0" y="45" font-size="16" text-anchor="middle" font-family="Arial">Testing Loss</text>
<line x1="495" y1="305.00" x2="885" y2="305.00" stroke="#dddddd" stroke-width="1" />
<line x1="495" y1="242.50" x2="885" y2="242.50" stroke="#dddddd" stroke-width="1" />
<line x1="495" y1="180.00" x2="885" y2="180.00" stroke="#dddddd" stroke-width="1" />
<line x1="495" y1="117.50" x2="885" y2="117.50" stroke="#dddddd" stroke-width="1" />
<line x1="495" y1="55.00" x2="885" y2="55.00" stroke="#dddddd" stroke-width="1" />
<line x1="495" y1="55" x2="495" y2="305" stroke="#333333" stroke-width="1" />
<line x1="495" y1="305" x2="885" y2="305" stroke="#333333" stroke-width="1" />
<rect x="513.00" y="298.09" width="56.40" height="6.91" fill="#4C78A8" />
<text x="541.20" y="292.09" font-size="10" text-anchor="middle" font-family="Arial">1.49e-05</text>
<text x="541.20" y="325.00" font-size="11" text-anchor="middle" font-family="Arial">GRU</text>
<rect x="587.40" y="294.36" width="56.40" height="10.64" fill="#59A14F" />
<text x="615.60" y="288.36" font-size="10" text-anchor="middle" font-family="Arial">2.30e-05</text>
<text x="615.60" y="325.00" font-size="11" text-anchor="middle" font-family="Arial">LSTM</text>
<rect x="661.80" y="297.37" width="56.40" height="7.63" fill="#F28E2B" />
<text x="690.00" y="291.37" font-size="10" text-anchor="middle" font-family="Arial">1.65e-05</text>
<text x="690.00" y="325.00" font-size="11" text-anchor="middle" font-family="Arial">RNN</text>
<rect x="736.20" y="296.28" width="56.40" height="8.72" fill="#E15759" />
<text x="764.40" y="290.28" font-size="10" text-anchor="middle" font-family="Arial">1.89e-05</text>
<text x="764.40" y="325.00" font-size="11" text-anchor="middle" font-family="Arial">Baseline-LR</text>
<rect x="810.60" y="288.89" width="56.40" height="16.11" fill="#4C78A8" />
<text x="838.80" y="282.89" font-size="10" text-anchor="middle" font-family="Arial">3.49e-05</text>
<text x="838.80" y="325.00" font-size="11" text-anchor="middle" font-family="Arial">Transformer</text>
<text x="690.0" y="412" font-size="12" text-anchor="middle" font-family="Arial">Model</text>
<text x="1120.0" y="45" font-size="16" text-anchor="middle" font-family="Arial">Validation Loss</text>
<line x1="925" y1="305.00" x2="1315" y2="305.00" stroke="#dddddd" stroke-width="1" />
<line x1="925" y1="242.50" x2="1315" y2="242.50" stroke="#dddddd" stroke-width="1" />
<line x1="925" y1="180.00" x2="1315" y2="180.00" stroke="#dddddd" stroke-width="1" />
<line x1="925" y1="117.50" x2="1315" y2="117.50" stroke="#dddddd" stroke-width="1" />
<line x1="925" y1="55.00" x2="1315" y2="55.00" stroke="#dddddd" stroke-width="1" />
<line x1="925" y1="55" x2="925" y2="305" stroke="#333333" stroke-width="1" />
<line x1="925" y1="305" x2="1315" y2="305" stroke="#333333" stroke-width="1" />
<rect x="943.00" y="286.09" width="56.40" height="18.91" fill="#4C78A8" />
<text x="971.20" y="280.09" font-size="10" text-anchor="middle" font-family="Arial">4.09e-05</text>
<text x="971.20" y="325.00" font-size="11" text-anchor="middle" font-family="Arial">GRU</text>
<rect x="1017.40" y="283.93" width="56.40" height="21.07" fill="#59A14F" />
<text x="1045.60" y="277.93" font-size="10" text-anchor="middle" font-family="Arial">4.56e-05</text>
<text x="1045.60" y="325.00" font-size="11" text-anchor="middle" font-family="Arial">LSTM</text>
<rect x="1091.80" y="281.69" width="56.40" height="23.31" fill="#F28E2B" />
<text x="1120.00" y="275.69" font-size="10" text-anchor="middle" font-family="Arial">5.04e-05</text>
<text x="1120.00" y="325.00" font-size="11" text-anchor="middle" font-family="Arial">RNN</text>
<rect x="1166.20" y="279.60" width="56.40" height="25.40" fill="#E15759" />
<text x="1194.40" y="273.60" font-size="10" text-anchor="middle" font-family="Arial">5.49e-05</text>
<text x="1194.40" y="325.00" font-size="11" text-anchor="middle" font-family="Arial">Baseline-LR</text>
<rect x="1240.60" y="268.24" width="56.40" height="36.76" fill="#4C78A8" />
<text x="1268.80" y="262.24" font-size="10" text-anchor="middle" font-family="Arial">7.95e-05</text>
<text x="1268.80" y="325.00" font-size="11" text-anchor="middle" font-family="Arial">Transformer</text>
<text x="1120.0" y="412" font-size="12" text-anchor="middle" font-family="Arial">Model</text>
</svg>