<svg xmlns="http://www.w3.org/2000/svg" width="1380" height="430" viewBox="0 0 1380 430">
<rect width="100%" height="100%" fill="white" />
<text x="690" y="28" font-size="20" text-anchor="middle" font-family="Arial">Best Tuned Model Losses on a Shared Y-Axis</text>
<text x="25" y="210" font-size="14" text-anchor="middle" transform="rotate(-90 25 210)" font-family="Arial">MSE</text>
<text x="260.0" y="45" font-size="16" text-anchor="middle" font-family="Arial">Training Loss</text>
<line x1="65" y1="305.00" x2="455" y2="305.00" stroke="#dddddd" stroke-width="1" />
<text x="57" y="309.00" font-size="10" text-anchor="end" font-family="Arial">0.00e+00</text>
<line x1="65" y1="242.50" x2="455" y2="242.50" stroke="#dddddd" stroke-width="1" />
<text x="57" y="246.50" font-size="10" text-anchor="end" font-family="Arial">9.78e-05</text>
<line x1="65" y1="180.00" x2="455" y2="180.00" stroke="#dddddd" stroke-width="1" />
<text x="57" y="184.00" font-size="10" text-anchor="end" font-family="Arial">1.96e-04</text>
<line x1="65" y1="117.50" x2="455" y2="117.50" stroke="#dddddd" stroke-width="1" />
<text x="57" y="121.50" font-size="10" text-anchor="end" font-family="Arial">2.94e-04</text>
<line x1="65" y1="55.00" x2="455" y2="55.00" stroke="#dddddd" stroke-width="1" />
<text x="57" y="59.00" font-size="10" text-anchor="end" font-family="Arial">3.91e-04</text>
<line x1="65" y1="55" x2="65" y2="305" stroke="#333333" stroke-width="1" />
<line x1="65" y1="305" x2="455" y2="305" stroke="#333333" stroke-width="1" />
<rect x="83.00" y="224.08" width="56.40" height="80.92" fill="#4C78A8" />
<text x="111.20" y="218.08" font-size="10" text-anchor="middle" font-family="Arial">1.27e-04</text>
<text x="111.20" y="325.00" font-size="11" text-anchor="middle" font-family="Arial">RNN</text>
<rect x="157.40" y="224.05" width="56.40" height="80.95" fill="#59A14F" />
<text x="185.60" y="218.05" font-size="10" text-anchor="middle" font-family="Arial">1.27e-04</text>
<text x="185.60" y="325.00" font-size="11" text-anchor="middle" font-family="Arial">GRU</text>
<rect x="231.80" y="207.21" width="56.40" height="97.79" fill="#F28E2B" />
<text x="260.00" y="201.21" font-size="10" text-anchor="middle" font-family="Arial">1.53e-04</text>
<text x="260.00" y="325.00" font-size="11" text-anchor="middle" font-family="Arial">LSTM</text>
<rect x="306.20" y="234.74" width="56.40" height="70.26" fill="#E15759" />
<text x="334.40" y="228.74" font-size="10" text-anchor="middle" font-family="Arial">1.10e-04</text>
<text x="334.40" y="325.00" font-size="11" text-anchor="middle" font-family="Arial">Transformer</text>
<rect x="380.60" y="237.16" width="56.40" height="67.84" fill="#4C78A8" />
<text x="408.80" y="231.16" font-size="10" text-anchor="middle" font-family="Arial">1.06e-04</text>
<text x="408.80" y="325.00" font-size="11" text-anchor="middle" font-family="Arial">Baseline-LR</text>
<text x="260.0" y="412" font-size="12" text-anchor="middle" font-family="Arial">Model</text>
<text x="690.0" y="45" font-size="16" text-anchor="middle" font-family="Arial">Testing Loss</text>
<line x1="495" y1="305.00" x2="885" y2="305.00" stroke="#dddddd" stroke-width="1" />
<line x1="495" y1="242.50" x2="885" y2="242.50" stroke="#dddddd" stroke-width="1" />
<line x1="495" y1="180.00" x2="885" y2="180.00" stroke="#dddddd" stroke-width="1" />
<line x1="495" y1="117.50" x2="885" y2="117.50" stroke="#dddddd" stroke-width="1" />
<line x1="495" y1="55.00" x2="885" y2="55.00" stroke="#dddddd" stroke-width="1" />
<line x1="495" y1="55" x2="495" y2="305" stroke="#333333" stroke-width="1" />
<line x1="495" y1="305" x2="885" y2="305" stroke="#333333" stroke-width="1" />
<rect x="513.00" y="241.66" width="56.40" height="63.34" fill="#4C78A8" />
<text x="541.20" y="235.66" font-size="10" text-anchor="middle" font-family="Arial">9.92e-05</text>
<text x="541.20" y="325.00" font-size="11" text-anchor="middle" font-family="Arial">RNN</text>
<rect x="587.40" y="242.57" width="56.40" height="62.43" fill="#59A14F" />
<text x="615.60" y="236.57" font-size="10" text-anchor="middle" font-family="Arial">9.77e-05</text>
<text x="615.60" y="325.00" font-size="11" text-anchor="middle" font-family="Arial">GRU</text>
<rect x="661.80" y="242.04" width="56.40" height="62.96" fill="#F28E2B" />
<text x="690.00" y="236.04" font-size="10" text-anchor="middle" font-family="Arial">9.86e-05</text>
<text x="690.00" y="325.00" font-size="11" text-anchor="middle" font-family="Arial">LSTM</text>
<rect x="736.20" y="229.02" width="56.40" height="75.98" fill="#E15759" />
<text x="764.40" y="223.02" font-size="10" text-anchor="middle" font-family="Arial">1.19e-04</text>
<text x="764.40" y="325.00" font-size="11" text-anchor="middle" font-family="Arial">Transformer</text>
<rect x="810.60" y="227.30" width="56.40" height="77.70" fill="#4C78A8" />
<text x="838.80" y="221.30" font-size="10" text-anchor="middle" font-family="Arial">1.22e-04</text>
<text x="838.80" y="325.00" font-size="11" text-anchor="middle" font-family="Arial">Baseline-LR</text>
<text x="690.0" y="412" font-size="12" text-anchor="middle" font-family="Arial">Model</text>
<text x="1120.0" y="45" font-size="16" text-anchor="middle" font-family="Arial">Validation Loss</text>
<line x1="925" y1="305.00" x2="1315" y2="305.00" stroke="#dddddd" stroke-width="1" />
<line x1="925" y1="242.50" x2="1315" y2="242.50" stroke="#dddddd" stroke-width="1" />
<line x1="925" y1="180.00" x2="1315" y2="180.00" stroke="#dddddd" stroke-width="1" />
<line x1="925" y1="117.50" x2="1315" y2="117.50" stroke="#dddddd" stroke-width="1" />
<line x1="925" y1="55.00" x2="1315" y2="55.00" stroke="#dddddd" stroke-width="1" />
<line x1="925" y1="55" x2="925" y2="305" stroke="#333333" stroke-width="1" />
<line x1="925" y1="305" x2="1315" y2="305" stroke="#333333" stroke-width="1" />
<rect x="943.00" y="139.54" width="56.40" height="165.46" fill="#4C78A8" />
<text x="971.20" y="133.54" font-size="10" text-anchor="middle" font-family="Arial">2.59e-04</text>
<text x="971.20" y="325.00" font-size="11" text-anchor="middle" font-family="Arial">RNN</text>
<rect x="1017.40" y="139.37" width="56.40" height="165.63" fill="#59A14F" />
<text x="1045.60" y="133.37" font-size="10" text-anchor="middle" font-family="Arial">2.59e-04</text>
<text x="1045.60" y="325.00" font-size="11" text-anchor="middle" font-family="Arial">GRU</text>
<rect x="1091.80" y="136.10" width="56.40" height="168.90" fill="#F28E2B" />
<text x="1120.00" y="130.10" font-size="10" text-anchor="middle" font-family="Arial">2.64e-04</text>
<text x="1120.00" y="325.00" font-size="11" text-anchor="middle" font-family="Arial">LSTM</text>
<rect x="1166.20" y="121.60" width="56.40" height="183.40" fill="#E15759" />
<text x="1194.40" y="115.60" font-size="10" text-anchor="middle" font-family="Arial">2.87e-04</text>
<text x="1194.40" y="325.00" font-size="11" text-anchor="middle" font-family="Arial">Transformer</text>
<rect x="1240.60" y="66.90" width="56.40" height="238.10" fill="#4C78A8" />
<text x="1268.80" y="60.90" font-size="10" text-anchor="middle" font-family="Arial">3.73e-04</text>
<text x="1268.80" y="325.00" font-size="11" text-anchor="middle" font-family="Arial">Baseline-LR</text>
<text x="1120.0" y="412" font-size="12" text-anchor="middle" font-family="Arial">Model</text>
</svg>