<svg xmlns="http://www.w3.org/2000/svg" width="1380" height="430" viewBox="0 0 1380 430">
<rect width="100%" height="100%" fill="white" />
<text x="690" y="28" font-size="20" text-anchor="middle" font-family="Arial">Best Tuned Model Losses on a Shared Y-Axis</text>
<text x="25" y="210" font-size="14" text-anchor="middle" transform="rotate(-90 25 210)" font-family="Arial">MSE</text>
<text x="260.0" y="45" font-size="16" text-anchor="middle" font-family="Arial">Training Loss</text>
<line x1="65" y1="305.00" x2="455" y2="305.00" stroke="#dddddd" stroke-width="1" />
<text x="57" y="309.00" font-size="10" text-anchor="end" font-family="Arial">0.00e+00</text>
<line x1="65" y1="242.50" x2="455" y2="242.50" stroke="#dddddd" stroke-width="1" />
<text x="57" y="246.50" font-size="10" text-anchor="end" font-family="Arial">9.55e-05</text>
<line x1="65" y1="180.00" x2="455" y2="180.00" stroke="#dddddd" stroke-width="1" />
<text x="57" y="184.00" font-size="10" text-anchor="end" font-family="Arial">1.91e-04</text>
<line x1="65" y1="117.50" x2="455" y2="117.50" stroke="#dddddd" stroke-width="1" />
<text x="57" y="121.50" font-size="10" text-anchor="end" font-family="Arial">2.86e-04</text>
<line x1="65" y1="55.00" x2="455" y2="55.00" stroke="#dddddd" stroke-width="1" />
<text x="57" y="59.00" font-size="10" text-anchor="end" font-family="Arial">3.82e-04</text>
<line x1="65" y1="55" x2="65" y2="305" stroke="#333333" stroke-width="1" />
<line x1="65" y1="305" x2="455" y2="305" stroke="#333333" stroke-width="1" />
<rect x="83.00" y="66.90" width="75.00" height="238.10" fill="#4C78A8" />
<text x="120.50" y="60.90" font-size="10" text-anchor="middle" font-family="Arial">3.64e-04</text>
<text x="120.50" y="325.00" font-size="11" text-anchor="middle" font-family="Arial">GRU</text>
<rect x="176.00" y="291.37" width="75.00" height="13.63" fill="#59A14F" />
<text x="213.50" y="285.37" font-size="10" text-anchor="middle" font-family="Arial">2.08e-05</text>
<text x="213.50" y="325.00" font-size="11" text-anchor="middle" font-family="Arial">LSTM</text>
<rect x="269.00" y="294.99" width="75.00" height="10.01" fill="#F28E2B" />
<text x="306.50" y="288.99" font-size="10" text-anchor="middle" font-family="Arial">1.53e-05</text>
<text x="306.50" y="325.00" font-size="11" text-anchor="middle" font-family="Arial">RNN</text>
<rect x="362.00" y="284.79" width="75.00" height="20.21" fill="#E15759" />
<text x="399.50" y="278.79" font-size="10" text-anchor="middle" font-family="Arial">3.09e-05</text>
<text x="399.50" y="325.00" font-size="11" text-anchor="middle" font-family="Arial">Transformer</text>
<text x="260.0" y="412" font-size="12" text-anchor="middle" font-family="Arial">Model</text>
<text x="690.0" y="45" font-size="16" text-anchor="middle" font-family="Arial">Testing Loss</text>
<line x1="495" y1="305.00" x2="885" y2="305.00" stroke="#dddddd" stroke-width="1" />
<line x1="495" y1="242.50" x2="885" y2="242.50" stroke="#dddddd" stroke-width="1" />
<line x1="495" y1="180.00" x2="885" y2="180.00" stroke="#dddddd" stroke-width="1" />
<line x1="495" y1="117.50" x2="885" y2="117.50" stroke="#dddddd" stroke-width="1" />
<line x1="495" y1="55.00" x2="885" y2="55.00" stroke="#dddddd" stroke-width="1" />
<line x1="495" y1="55" x2="495" y2="305" stroke="#333333" stroke-width="1" />
<line x1="495" y1="305" x2="885" y2="305" stroke="#333333" stroke-width="1" />
<rect x="513.00" y="292.28" width="75.00" height="12.72" fill="#4C78A8" />
<text x="550.50" y="286.28" font-size="10" text-anchor="middle" font-family="Arial">1.94e-05</text>
<text x="550.50" y="325.00" font-size="11" text-anchor="middle" font-family="Arial">GRU</text>
<rect x="606.00" y="292.05" width="75.00" height="12.95" fill="#59A14F" />
<text x="643.50" y="286.05" font-size="10" text-anchor="middle" font-family="Arial">1.98e-05</text>
<text x="643.50" y="325.00" font-size="11" text-anchor="middle" font-family="Arial">LSTM</text>
<rect x="699.00" y="291.20" width="75.00" height="13.80" fill="#F28E2B" />
<text x="736.50" y="285.20" font-size="10" text-anchor="middle" font-family="Arial">2.11e-05</text>
<text x="736.50" y="325.00" font-size="11" text-anchor="middle" font-family="Arial">RNN</text>
<rect x="792.00" y="293.56" width="75.00" height="11.44" fill="#E15759" />
<text x="829.50" y="287.56" font-size="10" text-anchor="middle" font-family="Arial">1.75e-05</text>
<text x="829.50" y="325.00" font-size="11" text-anchor="middle" font-family="Arial">Transformer</text>
<text x="690.0" y="412" font-size="12" text-anchor="middle" font-family="Arial">Model</text>
<text x="1120.0" y="45" font-size="16" text-anchor="middle" font-family="Arial">Validation Loss</text>
<line x1="925" y1="305.00" x2="1315" y2="305.00" stroke="#dddddd" stroke-width="1" />
<line x1="925" y1="242.50" x2="1315" y2="242.50" stroke="#dddddd" stroke-width="1" />
<line x1="925" y1="180.00" x2="1315" y2="180.00" stroke="#dddddd" stroke-width="1" />
<line x1="925" y1="117.50" x2="1315" y2="117.50" stroke="#dddddd" stroke-width="1" />
<line x1="925" y1="55.00" x2="1315" y2="55.00" stroke="#dddddd" stroke-width="1" />
<line x1="925" y1="55" x2="925" y2="305" stroke="#333333" stroke-width="1" />
<line x1="925" y1="305" x2="1315" y2="305" stroke="#333333" stroke-width="1" />
<rect x="943.00" y="279.75" width="75.00" height="25.25" fill="#4C78A8" />
<text x="980.50" y="273.75" font-size="10" text-anchor="middle" font-family="Arial">3.86e-05</text>
<text x="980.50" y="325.00" font-size="11" text-anchor="middle" font-family="Arial">GRU</text>
<rect x="1036.00" y="279.46" width="75.00" height="25.54" fill="#59A14F" />
<text x="1073.50" y="273.46" font-size="10" text-anchor="middle" font-family="Arial">3.90e-05</text>
<text x="1073.50" y="325.00" font-size="11" text-anchor="middle" font-family="Arial">LSTM</text>
<rect x="1129.00" y="276.66" width="75.00" height="28.34" fill="#F28E2B" />
<text x="1166.50" y="270.66" font-size="10" text-anchor="middle" font-family="Arial">4.33e-05</text>
<text x="1166.50" y="325.00" font-size="11" text-anchor="middle" font-family="Arial">RNN</text>
<rect x="1222.00" y="272.89" width="75.00" height="32.11" fill="#E15759" />
<text x="1259.50" y="266.89" font-size="10" text-anchor="middle" font-family="Arial">4.90e-05</text>
<text x="1259.50" y="325.00" font-size="11" text-anchor="middle" font-family="Arial">Transformer</text>
<text x="1120.0" y="412" font-size="12" text-anchor="middle" font-family="Arial">Model</text>
</svg>