<svg xmlns="http://www.w3.org/2000/svg" width="1380" height="430" viewBox="0 0 1380 430">
<rect width="100%" height="100%" fill="white" />
<text x="690" y="28" font-size="20" text-anchor="middle" font-family="Arial">Best Tuned Model Losses on a Shared Y-Axis</text>
<text x="25" y="210" font-size="14" text-anchor="middle" transform="rotate(-90 25 210)" font-family="Arial">MSE</text>
<text x="260.0" y="45" font-size="16" text-anchor="middle" font-family="Arial">Training Loss</text>
<line x1="65" y1="305.00" x2="455" y2="305.00" stroke="#dddddd" stroke-width="1" />
<text x="57" y="309.00" font-size="10" text-anchor="end" font-family="Arial">0.00e+00</text>
<line x1="65" y1="242.50" x2="455" y2="242.50" stroke="#dddddd" stroke-width="1" />
<text x="57" y="246.50" font-size="10" text-anchor="end" font-family="Arial">9.55e-05</text>
<line x1="65" y1="180.00" x2="455" y2="180.00" stroke="#dddddd" stroke-width="1" />
<text x="57" y="184.00" font-size="10" text-anchor="end" font-family="Arial">1.91e-04</text>
<line x1="65" y1="117.50" x2="455" y2="117.50" stroke="#dddddd" stroke-width="1" />
<text x="57" y="121.50" font-size="10" text-anchor="end" font-family="Arial">2.86e-04</text>
<line x1="65" y1="55.00" x2="455" y2="55.00" stroke="#dddddd" stroke-width="1" />
<text x="57" y="59.00" font-size="10" text-anchor="end" font-family="Arial">3.82e-04</text>
<line x1="65" y1="55" x2="65" y2="305" stroke="#333333" stroke-width="1" />
<line x1="65" y1="305" x2="455" y2="305" stroke="#333333" stroke-width="1" />
<rect x="83.00" y="295.85" width="56.40" height="9.15" fill="#4C78A8" />
<text x="111.20" y="289.85" font-size="10" text-anchor="middle" font-family="Arial">1.40e-05</text>
<text x="111.20" y="325.00" font-size="11" text-anchor="middle" font-family="Arial">Baseline-LR</text>
<rect x="157.40" y="66.90" width="56.40" height="238.10" fill="#59A14F" />
<text x="185.60" y="60.90" font-size="10" text-anchor="middle" font-family="Arial">3.64e-04</text>
<text x="185.60" y="325.00" font-size="11" text-anchor="middle" font-family="Arial">GRU</text>
<rect x="231.80" y="291.37" width="56.40" height="13.63" fill="#F28E2B" />
<text x="260.00" y="285.37" font-size="10" text-anchor="middle" font-family="Arial">2.08e-05</text>
<text x="260.00" y="325.00" font-size="11" text-anchor="middle" font-family="Arial">LSTM</text>
<rect x="306.20" y="294.99" width="56.40" height="10.01" fill="#E15759" />
<text x="334.40" y="288.99" font-size="10" text-anchor="middle" font-family="Arial">1.53e-05</text>
<text x="334.40" y="325.00" font-size="11" text-anchor="middle" font-family="Arial">RNN</text>
<rect x="380.60" y="284.79" width="56.40" height="20.21" fill="#4C78A8" />
<text x="408.80" y="278.79" font-size="10" text-anchor="middle" font-family="Arial">3.09e-05</text>
<text x="408.80" y="325.00" font-size="11" text-anchor="middle" font-family="Arial">Transformer</text>
<text x="260.0" y="412" font-size="12" text-anchor="middle" font-family="Arial">Model</text>
<text x="690.0" y="45" font-size="16" text-anchor="middle" font-family="Arial">Testing Loss</text>
<line x1="495" y1="305.00" x2="885" y2="305.00" stroke="#dddddd" stroke-width="1" />
<line x1="495" y1="242.50" x2="885" y2="242.50" stroke="#dddddd" stroke-width="1" />
<line x1="495" y1="180.00" x2="885" y2="180.00" stroke="#dddddd" stroke-width="1" />
<line x1="495" y1="117.50" x2="885" y2="117.50" stroke="#dddddd" stroke-width="1" />
<line x1="495" y1="55.00" x2="885" y2="55.00" stroke="#dddddd" stroke-width="1" />
<line x1="495" y1="55" x2="495" y2="305" stroke="#333333" stroke-width="1" />
<line x1="495" y1="305" x2="885" y2="305" stroke="#333333" stroke-width="1" />
<rect x="513.00" y="293.39" width="56.40" height="11.61" fill="#4C78A8" />
<text x="541.20" y="287.39" font-size="10" text-anchor="middle" font-family="Arial">1.77e-05</text>
<text x="541.20" y="325.00" font-size="11" text-anchor="middle" font-family="Arial">Baseline-LR</text>
<rect x="587.40" y="292.28" width="56.40" height="12.72" fill="#59A14F" />
<text x="615.60" y="286.28" font-size="10" text-anchor="middle" font-family="Arial">1.94e-05</text>
<text x="615.60" y="325.00" font-size="11" text-anchor="middle" font-family="Arial">GRU</text>
<rect x="661.80" y="292.05" width="56.40" height="12.95" fill="#F28E2B" />
<text x="690.00" y="286.05" font-size="10" text-anchor="middle" font-family="Arial">1.98e-05</text>
<text x="690.00" y="325.00" font-size="11" text-anchor="middle" font-family="Arial">LSTM</text>
<rect x="736.20" y="291.20" width="56.40" height="13.80" fill="#E15759" />
<text x="764.40" y="285.20" font-size="10" text-anchor="middle" font-family="Arial">2.11e-05</text>
<text x="764.40" y="325.00" font-size="11" text-anchor="middle" font-family="Arial">RNN</text>
<rect x="810.60" y="293.56" width="56.40" height="11.44" fill="#4C78A8" />
<text x="838.80" y="287.56" font-size="10" text-anchor="middle" font-family="Arial">1.75e-05</text>
<text x="838.80" y="325.00" font-size="11" text-anchor="middle" font-family="Arial">Transformer</text>
<text x="690.0" y="412" font-size="12" text-anchor="middle" font-family="Arial">Model</text>
<text x="1120.0" y="45" font-size="16" text-anchor="middle" font-family="Arial">Validation Loss</text>
<line x1="925" y1="305.00" x2="1315" y2="305.00" stroke="#dddddd" stroke-width="1" />
<line x1="925" y1="242.50" x2="1315" y2="242.50" stroke="#dddddd" stroke-width="1" />
<line x1="925" y1="180.00" x2="1315" y2="180.00" stroke="#dddddd" stroke-width="1" />
<line x1="925" y1="117.50" x2="1315" y2="117.50" stroke="#dddddd" stroke-width="1" />
<line x1="925" y1="55.00" x2="1315" y2="55.00" stroke="#dddddd" stroke-width="1" />
<line x1="925" y1="55" x2="925" y2="305" stroke="#333333" stroke-width="1" />
<line x1="925" y1="305" x2="1315" y2="305" stroke="#333333" stroke-width="1" />
<rect x="943.00" y="277.94" width="56.40" height="27.06" fill="#4C78A8" />
<text x="971.20" y="271.94" font-size="10" text-anchor="middle" font-family="Arial">4.13e-05</text>
<text x="971.20" y="325.00" font-size="11" text-anchor="middle" font-family="Arial">Baseline-LR</text>
<rect x="1017.40" y="279.75" width="56.40" height="25.25" fill="#59A14F" />
<text x="1045.60" y="273.75" font-size="10" text-anchor="middle" font-family="Arial">3.86e-05</text>
<text x="1045.60" y="325.00" font-size="11" text-anchor="middle" font-family="Arial">GRU</text>
<rect x="1091.80" y="279.46" width="56.40" height="25.54" fill="#F28E2B" />
<text x="1120.00" y="273.46" font-size="10" text-anchor="middle" font-family="Arial">3.90e-05</text>
<text x="1120.00" y="325.00" font-size="11" text-anchor="middle" font-family="Arial">LSTM</text>
<rect x="1166.20" y="276.66" width="56.40" height="28.34" fill="#E15759" />
<text x="1194.40" y="270.66" font-size="10" text-anchor="middle" font-family="Arial">4.33e-05</text>
<text x="1194.40" y="325.00" font-size="11" text-anchor="middle" font-family="Arial">RNN</text>
<rect x="1240.60" y="272.89" width="56.40" height="32.11" fill="#4C78A8" />
<text x="1268.80" y="266.89" font-size="10" text-anchor="middle" font-family="Arial">4.90e-05</text>
<text x="1268.80" y="325.00" font-size="11" text-anchor="middle" font-family="Arial">Transformer</text>
<text x="1120.0" y="412" font-size="12" text-anchor="middle" font-family="Arial">Model</text>
</svg>