<svg xmlns="http://www.w3.org/2000/svg" width="1380" height="430" viewBox="0 0 1380 430">
<rect width="100%" height="100%" fill="white" />
<text x="690" y="28" font-size="20" text-anchor="middle" font-family="Arial">Best Tuned Model Losses on a Shared Y-Axis</text>
<text x="25" y="210" font-size="14" text-anchor="middle" transform="rotate(-90 25 210)" font-family="Arial">MSE</text>
<text x="260.0" y="45" font-size="16" text-anchor="middle" font-family="Arial">Training Loss</text>
<line x1="65" y1="305.00" x2="455" y2="305.00" stroke="#dddddd" stroke-width="1" />
<text x="57" y="309.00" font-size="10" text-anchor="end" font-family="Arial">0.00e+00</text>
<line x1="65" y1="242.50" x2="455" y2="242.50" stroke="#dddddd" stroke-width="1" />
<text x="57" y="246.50" font-size="10" text-anchor="end" font-family="Arial">1.42e-05</text>
<line x1="65" y1="180.00" x2="455" y2="180.00" stroke="#dddddd" stroke-width="1" />
<text x="57" y="184.00" font-size="10" text-anchor="end" font-family="Arial">2.84e-05</text>
<line x1="65" y1="117.50" x2="455" y2="117.50" stroke="#dddddd" stroke-width="1" />
<text x="57" y="121.50" font-size="10" text-anchor="end" font-family="Arial">4.26e-05</text>
<line x1="65" y1="55.00" x2="455" y2="55.00" stroke="#dddddd" stroke-width="1" />
<text x="57" y="59.00" font-size="10" text-anchor="end" font-family="Arial">5.68e-05</text>
<line x1="65" y1="55" x2="65" y2="305" stroke="#333333" stroke-width="1" />
<line x1="65" y1="305" x2="455" y2="305" stroke="#333333" stroke-width="1" />
<rect x="83.00" y="217.98" width="56.40" height="87.02" fill="#4C78A8" />
<text x="111.20" y="211.98" font-size="10" text-anchor="middle" font-family="Arial">1.98e-05</text>
<text x="111.20" y="325.00" font-size="11" text-anchor="middle" font-family="Arial">LSTM</text>
<rect x="157.40" y="232.04" width="56.40" height="72.96" fill="#59A14F" />
<text x="185.60" y="226.04" font-size="10" text-anchor="middle" font-family="Arial">1.66e-05</text>
<text x="185.60" y="325.00" font-size="11" text-anchor="middle" font-family="Arial">RNN</text>
<rect x="231.80" y="247.10" width="56.40" height="57.90" fill="#F28E2B" />
<text x="260.00" y="241.10" font-size="10" text-anchor="middle" font-family="Arial">1.31e-05</text>
<text x="260.00" y="325.00" font-size="11" text-anchor="middle" font-family="Arial">Baseline-LR</text>
<rect x="306.20" y="248.71" width="56.40" height="56.29" fill="#E15759" />
<text x="334.40" y="242.71" font-size="10" text-anchor="middle" font-family="Arial">1.28e-05</text>
<text x="334.40" y="325.00" font-size="11" text-anchor="middle" font-family="Arial">GRU</text>
<rect x="380.60" y="73.68" width="56.40" height="231.32" fill="#4C78A8" />
<text x="408.80" y="67.68" font-size="10" text-anchor="middle" font-family="Arial">5.25e-05</text>
<text x="408.80" y="325.00" font-size="11" text-anchor="middle" font-family="Arial">Transformer</text>
<text x="260.0" y="412" font-size="12" text-anchor="middle" font-family="Arial">Model</text>
<text x="690.0" y="45" font-size="16" text-anchor="middle" font-family="Arial">Testing Loss</text>
<line x1="495" y1="305.00" x2="885" y2="305.00" stroke="#dddddd" stroke-width="1" />
<line x1="495" y1="242.50" x2="885" y2="242.50" stroke="#dddddd" stroke-width="1" />
<line x1="495" y1="180.00" x2="885" y2="180.00" stroke="#dddddd" stroke-width="1" />
<line x1="495" y1="117.50" x2="885" y2="117.50" stroke="#dddddd" stroke-width="1" />
<line x1="495" y1="55.00" x2="885" y2="55.00" stroke="#dddddd" stroke-width="1" />
<line x1="495" y1="55" x2="495" y2="305" stroke="#333333" stroke-width="1" />
<line x1="495" y1="305" x2="885" y2="305" stroke="#333333" stroke-width="1" />
<rect x="513.00" y="206.84" width="56.40" height="98.16" fill="#4C78A8" />
<text x="541.20" y="200.84" font-size="10" text-anchor="middle" font-family="Arial">2.23e-05</text>
<text x="541.20" y="325.00" font-size="11" text-anchor="middle" font-family="Arial">LSTM</text>
<rect x="587.40" y="205.20" width="56.40" height="99.80" fill="#59A14F" />
<text x="615.60" y="199.20" font-size="10" text-anchor="middle" font-family="Arial">2.27e-05</text>
<text x="615.60" y="325.00" font-size="11" text-anchor="middle" font-family="Arial">RNN</text>
<rect x="661.80" y="223.43" width="56.40" height="81.57" fill="#F28E2B" />
<text x="690.00" y="217.43" font-size="10" text-anchor="middle" font-family="Arial">1.85e-05</text>
<text x="690.00" y="325.00" font-size="11" text-anchor="middle" font-family="Arial">Baseline-LR</text>
<rect x="736.20" y="206.95" width="56.40" height="98.05" fill="#E15759" />
<text x="764.40" y="200.95" font-size="10" text-anchor="middle" font-family="Arial">2.23e-05</text>
<text x="764.40" y="325.00" font-size="11" text-anchor="middle" font-family="Arial">GRU</text>
<rect x="810.60" y="189.05" width="56.40" height="115.95" fill="#4C78A8" />
<text x="838.80" y="183.05" font-size="10" text-anchor="middle" font-family="Arial">2.63e-05</text>
<text x="838.80" y="325.00" font-size="11" text-anchor="middle" font-family="Arial">Transformer</text>
<text x="690.0" y="412" font-size="12" text-anchor="middle" font-family="Arial">Model</text>
<text x="1120.0" y="45" font-size="16" text-anchor="middle" font-family="Arial">Validation Loss</text>
<line x1="925" y1="305.00" x2="1315" y2="305.00" stroke="#dddddd" stroke-width="1" />
<line x1="925" y1="242.50" x2="1315" y2="242.50" stroke="#dddddd" stroke-width="1" />
<line x1="925" y1="180.00" x2="1315" y2="180.00" stroke="#dddddd" stroke-width="1" />
<line x1="925" y1="117.50" x2="1315" y2="117.50" stroke="#dddddd" stroke-width="1" />
<line x1="925" y1="55.00" x2="1315" y2="55.00" stroke="#dddddd" stroke-width="1" />
<line x1="925" y1="55" x2="925" y2="305" stroke="#333333" stroke-width="1" />
<line x1="925" y1="305" x2="1315" y2="305" stroke="#333333" stroke-width="1" />
<rect x="943.00" y="127.23" width="56.40" height="177.77" fill="#4C78A8" />
<text x="971.20" y="121.23" font-size="10" text-anchor="middle" font-family="Arial">4.04e-05</text>
<text x="971.20" y="325.00" font-size="11" text-anchor="middle" font-family="Arial">LSTM</text>
<rect x="1017.40" y="120.34" width="56.40" height="184.66" fill="#59A14F" />
<text x="1045.60" y="114.34" font-size="10" text-anchor="middle" font-family="Arial">4.19e-05</text>
<text x="1045.60" y="325.00" font-size="11" text-anchor="middle" font-family="Arial">RNN</text>
<rect x="1091.80" y="114.29" width="56.40" height="190.71" fill="#F28E2B" />
<text x="1120.00" y="108.29" font-size="10" text-anchor="middle" font-family="Arial">4.33e-05</text>
<text x="1120.00" y="325.00" font-size="11" text-anchor="middle" font-family="Arial">Baseline-LR</text>
<rect x="1166.20" y="110.28" width="56.40" height="194.72" fill="#E15759" />
<text x="1194.40" y="104.28" font-size="10" text-anchor="middle" font-family="Arial">4.42e-05</text>
<text x="1194.40" y="325.00" font-size="11" text-anchor="middle" font-family="Arial">GRU</text>
<rect x="1240.60" y="66.90" width="56.40" height="238.10" fill="#4C78A8" />
<text x="1268.80" y="60.90" font-size="10" text-anchor="middle" font-family="Arial">5.41e-05</text>
<text x="1268.80" y="325.00" font-size="11" text-anchor="middle" font-family="Arial">Transformer</text>
<text x="1120.0" y="412" font-size="12" text-anchor="middle" font-family="Arial">Model</text>
</svg>