<svg xmlns="http://www.w3.org/2000/svg" width="1380" height="430" viewBox="0 0 1380 430">
<rect width="100%" height="100%" fill="white" />
<text x="690" y="28" font-size="20" text-anchor="middle" font-family="Arial">Best Tuned Model Losses on a Shared Y-Axis</text>
<text x="25" y="210" font-size="14" text-anchor="middle" transform="rotate(-90 25 210)" font-family="Arial">MSE</text>
<text x="260.0" y="45" font-size="16" text-anchor="middle" font-family="Arial">Training Loss</text>
<line x1="65" y1="305.00" x2="455" y2="305.00" stroke="#dddddd" stroke-width="1" />
<text x="57" y="309.00" font-size="10" text-anchor="end" font-family="Arial">0.00e+00</text>
<line x1="65" y1="242.50" x2="455" y2="242.50" stroke="#dddddd" stroke-width="1" />
<text x="57" y="246.50" font-size="10" text-anchor="end" font-family="Arial">1.42e-05</text>
<line x1="65" y1="180.00" x2="455" y2="180.00" stroke="#dddddd" stroke-width="1" />
<text x="57" y="184.00" font-size="10" text-anchor="end" font-family="Arial">2.84e-05</text>
<line x1="65" y1="117.50" x2="455" y2="117.50" stroke="#dddddd" stroke-width="1" />
<text x="57" y="121.50" font-size="10" text-anchor="end" font-family="Arial">4.25e-05</text>
<line x1="65" y1="55.00" x2="455" y2="55.00" stroke="#dddddd" stroke-width="1" />
<text x="57" y="59.00" font-size="10" text-anchor="end" font-family="Arial">5.67e-05</text>
<line x1="65" y1="55" x2="65" y2="305" stroke="#333333" stroke-width="1" />
<line x1="65" y1="305" x2="455" y2="305" stroke="#333333" stroke-width="1" />
<rect x="83.00" y="248.67" width="75.00" height="56.33" fill="#4C78A8" />
<text x="120.50" y="242.67" font-size="10" text-anchor="middle" font-family="Arial">1.28e-05</text>
<text x="120.50" y="325.00" font-size="11" text-anchor="middle" font-family="Arial">GRU</text>
<rect x="176.00" y="217.90" width="75.00" height="87.10" fill="#59A14F" />
<text x="213.50" y="211.90" font-size="10" text-anchor="middle" font-family="Arial">1.98e-05</text>
<text x="213.50" y="325.00" font-size="11" text-anchor="middle" font-family="Arial">LSTM</text>
<rect x="269.00" y="231.98" width="75.00" height="73.02" fill="#F28E2B" />
<text x="306.50" y="225.98" font-size="10" text-anchor="middle" font-family="Arial">1.66e-05</text>
<text x="306.50" y="325.00" font-size="11" text-anchor="middle" font-family="Arial">RNN</text>
<rect x="362.00" y="74.26" width="75.00" height="230.74" fill="#E15759" />
<text x="399.50" y="68.26" font-size="10" text-anchor="middle" font-family="Arial">5.24e-05</text>
<text x="399.50" y="325.00" font-size="11" text-anchor="middle" font-family="Arial">Transformer</text>
<text x="260.0" y="412" font-size="12" text-anchor="middle" font-family="Arial">Model</text>
<text x="690.0" y="45" font-size="16" text-anchor="middle" font-family="Arial">Testing Loss</text>
<line x1="495" y1="305.00" x2="885" y2="305.00" stroke="#dddddd" stroke-width="1" />
<line x1="495" y1="242.50" x2="885" y2="242.50" stroke="#dddddd" stroke-width="1" />
<line x1="495" y1="180.00" x2="885" y2="180.00" stroke="#dddddd" stroke-width="1" />
<line x1="495" y1="117.50" x2="885" y2="117.50" stroke="#dddddd" stroke-width="1" />
<line x1="495" y1="55.00" x2="885" y2="55.00" stroke="#dddddd" stroke-width="1" />
<line x1="495" y1="55" x2="495" y2="305" stroke="#333333" stroke-width="1" />
<line x1="495" y1="305" x2="885" y2="305" stroke="#333333" stroke-width="1" />
<rect x="513.00" y="206.84" width="75.00" height="98.16" fill="#4C78A8" />
<text x="550.50" y="200.84" font-size="10" text-anchor="middle" font-family="Arial">2.23e-05</text>
<text x="550.50" y="325.00" font-size="11" text-anchor="middle" font-family="Arial">GRU</text>
<rect x="606.00" y="206.76" width="75.00" height="98.24" fill="#59A14F" />
<text x="643.50" y="200.76" font-size="10" text-anchor="middle" font-family="Arial">2.23e-05</text>
<text x="643.50" y="325.00" font-size="11" text-anchor="middle" font-family="Arial">LSTM</text>
<rect x="699.00" y="205.11" width="75.00" height="99.89" fill="#F28E2B" />
<text x="736.50" y="199.11" font-size="10" text-anchor="middle" font-family="Arial">2.27e-05</text>
<text x="736.50" y="325.00" font-size="11" text-anchor="middle" font-family="Arial">RNN</text>
<rect x="792.00" y="185.94" width="75.00" height="119.06" fill="#E15759" />
<text x="829.50" y="179.94" font-size="10" text-anchor="middle" font-family="Arial">2.70e-05</text>
<text x="829.50" y="325.00" font-size="11" text-anchor="middle" font-family="Arial">Transformer</text>
<text x="690.0" y="412" font-size="12" text-anchor="middle" font-family="Arial">Model</text>
<text x="1120.0" y="45" font-size="16" text-anchor="middle" font-family="Arial">Validation Loss</text>
<line x1="925" y1="305.00" x2="1315" y2="305.00" stroke="#dddddd" stroke-width="1" />
<line x1="925" y1="242.50" x2="1315" y2="242.50" stroke="#dddddd" stroke-width="1" />
<line x1="925" y1="180.00" x2="1315" y2="180.00" stroke="#dddddd" stroke-width="1" />
<line x1="925" y1="117.50" x2="1315" y2="117.50" stroke="#dddddd" stroke-width="1" />
<line x1="925" y1="55.00" x2="1315" y2="55.00" stroke="#dddddd" stroke-width="1" />
<line x1="925" y1="55" x2="925" y2="305" stroke="#333333" stroke-width="1" />
<line x1="925" y1="305" x2="1315" y2="305" stroke="#333333" stroke-width="1" />
<rect x="943.00" y="110.08" width="75.00" height="194.92" fill="#4C78A8" />
<text x="980.50" y="104.08" font-size="10" text-anchor="middle" font-family="Arial">4.42e-05</text>
<text x="980.50" y="325.00" font-size="11" text-anchor="middle" font-family="Arial">GRU</text>
<rect x="1036.00" y="127.07" width="75.00" height="177.93" fill="#59A14F" />
<text x="1073.50" y="121.07" font-size="10" text-anchor="middle" font-family="Arial">4.04e-05</text>
<text x="1073.50" y="325.00" font-size="11" text-anchor="middle" font-family="Arial">LSTM</text>
<rect x="1129.00" y="120.18" width="75.00" height="184.82" fill="#F28E2B" />
<text x="1166.50" y="114.18" font-size="10" text-anchor="middle" font-family="Arial">4.19e-05</text>
<text x="1166.50" y="325.00" font-size="11" text-anchor="middle" font-family="Arial">RNN</text>
<rect x="1222.00" y="66.90" width="75.00" height="238.10" fill="#E15759" />
<text x="1259.50" y="60.90" font-size="10" text-anchor="middle" font-family="Arial">5.40e-05</text>
<text x="1259.50" y="325.00" font-size="11" text-anchor="middle" font-family="Arial">Transformer</text>
<text x="1120.0" y="412" font-size="12" text-anchor="middle" font-family="Arial">Model</text>
</svg>