<svg xmlns="http://www.w3.org/2000/svg" width="1380" height="430" viewBox="0 0 1380 430">
<rect width="100%" height="100%" fill="white" />
<text x="690" y="28" font-size="20" text-anchor="middle" font-family="Arial">Best Tuned Model Losses on a Shared Y-Axis</text>
<text x="25" y="210" font-size="14" text-anchor="middle" transform="rotate(-90 25 210)" font-family="Arial">MSE</text>
<text x="260.0" y="45" font-size="16" text-anchor="middle" font-family="Arial">Training Loss</text>
<line x1="65" y1="305.00" x2="455" y2="305.00" stroke="#dddddd" stroke-width="1" />
<text x="57" y="309.00" font-size="10" text-anchor="end" font-family="Arial">0.00e+00</text>
<line x1="65" y1="242.50" x2="455" y2="242.50" stroke="#dddddd" stroke-width="1" />
<text x="57" y="246.50" font-size="10" text-anchor="end" font-family="Arial">9.78e-05</text>
<line x1="65" y1="180.00" x2="455" y2="180.00" stroke="#dddddd" stroke-width="1" />
<text x="57" y="184.00" font-size="10" text-anchor="end" font-family="Arial">1.96e-04</text>
<line x1="65" y1="117.50" x2="455" y2="117.50" stroke="#dddddd" stroke-width="1" />
<text x="57" y="121.50" font-size="10" text-anchor="end" font-family="Arial">2.94e-04</text>
<line x1="65" y1="55.00" x2="455" y2="55.00" stroke="#dddddd" stroke-width="1" />
<text x="57" y="59.00" font-size="10" text-anchor="end" font-family="Arial">3.91e-04</text>
<line x1="65" y1="55" x2="65" y2="305" stroke="#333333" stroke-width="1" />
<line x1="65" y1="305" x2="455" y2="305" stroke="#333333" stroke-width="1" />
<rect x="83.00" y="176.84" width="56.40" height="128.16" fill="#4C78A8" />
<text x="111.20" y="170.84" font-size="10" text-anchor="middle" font-family="Arial">2.01e-04</text>
<text x="111.20" y="325.00" font-size="11" text-anchor="middle" font-family="Arial">LSTM</text>
<rect x="157.40" y="218.27" width="56.40" height="86.73" fill="#59A14F" />
<text x="185.60" y="212.27" font-size="10" text-anchor="middle" font-family="Arial">1.36e-04</text>
<text x="185.60" y="325.00" font-size="11" text-anchor="middle" font-family="Arial">GRU</text>
<rect x="231.80" y="176.45" width="56.40" height="128.55" fill="#F28E2B" />
<text x="260.00" y="170.45" font-size="10" text-anchor="middle" font-family="Arial">2.01e-04</text>
<text x="260.00" y="325.00" font-size="11" text-anchor="middle" font-family="Arial">Transformer</text>
<rect x="306.20" y="223.50" width="56.40" height="81.50" fill="#E15759" />
<text x="334.40" y="217.50" font-size="10" text-anchor="middle" font-family="Arial">1.28e-04</text>
<text x="334.40" y="325.00" font-size="11" text-anchor="middle" font-family="Arial">RNN</text>
<rect x="380.60" y="237.16" width="56.40" height="67.84" fill="#4C78A8" />
<text x="408.80" y="231.16" font-size="10" text-anchor="middle" font-family="Arial">1.06e-04</text>
<text x="408.80" y="325.00" font-size="11" text-anchor="middle" font-family="Arial">Baseline-LR</text>
<text x="260.0" y="412" font-size="12" text-anchor="middle" font-family="Arial">Model</text>
<text x="690.0" y="45" font-size="16" text-anchor="middle" font-family="Arial">Testing Loss</text>
<line x1="495" y1="305.00" x2="885" y2="305.00" stroke="#dddddd" stroke-width="1" />
<line x1="495" y1="242.50" x2="885" y2="242.50" stroke="#dddddd" stroke-width="1" />
<line x1="495" y1="180.00" x2="885" y2="180.00" stroke="#dddddd" stroke-width="1" />
<line x1="495" y1="117.50" x2="885" y2="117.50" stroke="#dddddd" stroke-width="1" />
<line x1="495" y1="55.00" x2="885" y2="55.00" stroke="#dddddd" stroke-width="1" />
<line x1="495" y1="55" x2="495" y2="305" stroke="#333333" stroke-width="1" />
<line x1="495" y1="305" x2="885" y2="305" stroke="#333333" stroke-width="1" />
<rect x="513.00" y="247.41" width="56.40" height="57.59" fill="#4C78A8" />
<text x="541.20" y="241.41" font-size="10" text-anchor="middle" font-family="Arial">9.01e-05</text>
<text x="541.20" y="325.00" font-size="11" text-anchor="middle" font-family="Arial">LSTM</text>
<rect x="587.40" y="245.82" width="56.40" height="59.18" fill="#59A14F" />
<text x="615.60" y="239.82" font-size="10" text-anchor="middle" font-family="Arial">9.26e-05</text>
<text x="615.60" y="325.00" font-size="11" text-anchor="middle" font-family="Arial">GRU</text>
<rect x="661.80" y="242.18" width="56.40" height="62.82" fill="#F28E2B" />
<text x="690.00" y="236.18" font-size="10" text-anchor="middle" font-family="Arial">9.83e-05</text>
<text x="690.00" y="325.00" font-size="11" text-anchor="middle" font-family="Arial">Transformer</text>
<rect x="736.20" y="234.96" width="56.40" height="70.04" fill="#E15759" />
<text x="764.40" y="228.96" font-size="10" text-anchor="middle" font-family="Arial">1.10e-04</text>
<text x="764.40" y="325.00" font-size="11" text-anchor="middle" font-family="Arial">RNN</text>
<rect x="810.60" y="227.18" width="56.40" height="77.82" fill="#4C78A8" />
<text x="838.80" y="221.18" font-size="10" text-anchor="middle" font-family="Arial">1.22e-04</text>
<text x="838.80" y="325.00" font-size="11" text-anchor="middle" font-family="Arial">Baseline-LR</text>
<text x="690.0" y="412" font-size="12" text-anchor="middle" font-family="Arial">Model</text>
<text x="1120.0" y="45" font-size="16" text-anchor="middle" font-family="Arial">Validation Loss</text>
<line x1="925" y1="305.00" x2="1315" y2="305.00" stroke="#dddddd" stroke-width="1" />
<line x1="925" y1="242.50" x2="1315" y2="242.50" stroke="#dddddd" stroke-width="1" />
<line x1="925" y1="180.00" x2="1315" y2="180.00" stroke="#dddddd" stroke-width="1" />
<line x1="925" y1="117.50" x2="1315" y2="117.50" stroke="#dddddd" stroke-width="1" />
<line x1="925" y1="55.00" x2="1315" y2="55.00" stroke="#dddddd" stroke-width="1" />
<line x1="925" y1="55" x2="925" y2="305" stroke="#333333" stroke-width="1" />
<line x1="925" y1="305" x2="1315" y2="305" stroke="#333333" stroke-width="1" />
<rect x="943.00" y="150.31" width="56.40" height="154.69" fill="#4C78A8" />
<text x="971.20" y="144.31" font-size="10" text-anchor="middle" font-family="Arial">2.42e-04</text>
<text x="971.20" y="325.00" font-size="11" text-anchor="middle" font-family="Arial">LSTM</text>
<rect x="1017.40" y="148.03" width="56.40" height="156.97" fill="#59A14F" />
<text x="1045.60" y="142.03" font-size="10" text-anchor="middle" font-family="Arial">2.46e-04</text>
<text x="1045.60" y="325.00" font-size="11" text-anchor="middle" font-family="Arial">GRU</text>
<rect x="1091.80" y="144.19" width="56.40" height="160.81" fill="#F28E2B" />
<text x="1120.00" y="138.19" font-size="10" text-anchor="middle" font-family="Arial">2.52e-04</text>
<text x="1120.00" y="325.00" font-size="11" text-anchor="middle" font-family="Arial">Transformer</text>
<rect x="1166.20" y="143.28" width="56.40" height="161.72" fill="#E15759" />
<text x="1194.40" y="137.28" font-size="10" text-anchor="middle" font-family="Arial">2.53e-04</text>
<text x="1194.40" y="325.00" font-size="11" text-anchor="middle" font-family="Arial">RNN</text>
<rect x="1240.60" y="66.90" width="56.40" height="238.10" fill="#4C78A8" />
<text x="1268.80" y="60.90" font-size="10" text-anchor="middle" font-family="Arial">3.73e-04</text>
<text x="1268.80" y="325.00" font-size="11" text-anchor="middle" font-family="Arial">Baseline-LR</text>
<text x="1120.0" y="412" font-size="12" text-anchor="middle" font-family="Arial">Model</text>
</svg>