<svg xmlns="http://www.w3.org/2000/svg" width="960" height="540" viewBox="0 0 960 540"><style>text{font-family:Arial,sans-serif;fill:#1f2933}.title{font-size:24px;font-weight:bold}.axis{font-size:14px}.label{font-size:13px}.value{font-size:12px}.grid{stroke:#d9e2ec;stroke-width:1}.axis-line{stroke:#52606d;stroke-width:2}</style><rect width="960" height="540" fill="white" /><text x="480.0" y="36" text-anchor="middle" class="title">Validation Loss (MSE)</text><line x1="100" y1="420.00" x2="920" y2="420.00" class="grid" /><text x="88" y="425.00" text-anchor="end" class="axis">0</text><line x1="100" y1="350.00" x2="920" y2="350.00" class="grid" /><text x="88" y="355.00" text-anchor="end" class="axis">1.22e-05</text><line x1="100" y1="280.00" x2="920" y2="280.00" class="grid" /><text x="88" y="285.00" text-anchor="end" class="axis">2.44e-05</text><line x1="100" y1="210.00" x2="920" y2="210.00" class="grid" /><text x="88" y="215.00" text-anchor="end" class="axis">3.66e-05</text><line x1="100" y1="140.00" x2="920" y2="140.00" class="grid" /><text x="88" y="145.00" text-anchor="end" class="axis">4.88e-05</text><line x1="100" y1="70.00" x2="920" y2="70.00" class="grid" /><text x="88" y="75.00" text-anchor="end" class="axis">6.09e-05</text><line x1="100" y1="420" x2="920" y2="420" class="axis-line" /><line x1="100" y1="70" x2="100" y2="420" class="axis-line" /><rect x="101.50" y="186.06" width="149" height="233.94" fill="#54A24B" stroke="#1f2933" /><text x="176.00" y="178.06" text-anchor="middle" class="value">4.07e-05</text><text x="176.00" y="444.00" text-anchor="end" transform="rotate(-25 176.00 444.00)" class="label">LSTM</text><rect x="268.50" y="161.24" width="149" height="258.76" fill="#54A24B" stroke="#1f2933" /><text x="343.00" y="153.24" text-anchor="middle" class="value">4.51e-05</text><text x="343.00" y="444.00" text-anchor="end" transform="rotate(-25 343.00 444.00)" class="label">RNN</text><rect x="435.50" y="150.46" width="149" height="269.54" fill="#54A24B" stroke="#1f2933" /><text x="510.00" y="142.46" text-anchor="middle" class="value">4.69e-05</text><text x="510.00" y="444.00" text-anchor="end" transform="rotate(-25 510.00 444.00)" class="label">GRU</text><rect x="602.50" y="104.52" width="149" height="315.48" fill="#54A24B" stroke="#1f2933" /><text x="677.00" y="96.52" text-anchor="middle" class="value">5.49e-05</text><text x="677.00" y="444.00" text-anchor="end" transform="rotate(-25 677.00 444.00)" class="label">Baseline-LR</text><rect x="769.50" y="101.82" width="149" height="318.18" fill="#54A24B" stroke="#1f2933" /><text x="844.00" y="93.82" text-anchor="middle" class="value">5.54e-05</text><text x="844.00" y="444.00" text-anchor="end" transform="rotate(-25 844.00 444.00)" class="label">Transformer</text><text x="510.0" y="510" text-anchor="middle" class="axis">Model</text><text x="24" y="245.0" text-anchor="middle" transform="rotate(-90 24 245.0)" class="axis">MSE</text></svg>