<svg xmlns="http://www.w3.org/2000/svg" width="1380" height="430" viewBox="0 0 1380 430">
<rect width="100%" height="100%" fill="white" />
<text x="690" y="28" font-size="20" text-anchor="middle" font-family="Arial">Best Tuned Model Losses on a Shared Y-Axis</text>
<text x="25" y="210" font-size="14" text-anchor="middle" transform="rotate(-90 25 210)" font-family="Arial">MSE</text>
<text x="260.0" y="45" font-size="16" text-anchor="middle" font-family="Arial">Training Loss</text>
<line x1="65" y1="305.00" x2="455" y2="305.00" stroke="#dddddd" stroke-width="1" />
<text x="57" y="309.00" font-size="10" text-anchor="end" font-family="Arial">0.00e+00</text>
<line x1="65" y1="242.50" x2="455" y2="242.50" stroke="#dddddd" stroke-width="1" />
<text x="57" y="246.50" font-size="10" text-anchor="end" font-family="Arial">9.39e-05</text>
<line x1="65" y1="180.00" x2="455" y2="180.00" stroke="#dddddd" stroke-width="1" />
<text x="57" y="184.00" font-size="10" text-anchor="end" font-family="Arial">1.88e-04</text>
<line x1="65" y1="117.50" x2="455" y2="117.50" stroke="#dddddd" stroke-width="1" />
<text x="57" y="121.50" font-size="10" text-anchor="end" font-family="Arial">2.82e-04</text>
<line x1="65" y1="55.00" x2="455" y2="55.00" stroke="#dddddd" stroke-width="1" />
<text x="57" y="59.00" font-size="10" text-anchor="end" font-family="Arial">3.76e-04</text>
<line x1="65" y1="55" x2="65" y2="305" stroke="#333333" stroke-width="1" />
<line x1="65" y1="305" x2="455" y2="305" stroke="#333333" stroke-width="1" />
<rect x="83.00" y="66.90" width="56.40" height="238.10" fill="#4C78A8" />
<text x="111.20" y="60.90" font-size="10" text-anchor="middle" font-family="Arial">3.58e-04</text>
<text x="111.20" y="325.00" font-size="11" text-anchor="middle" font-family="Arial">LSTM</text>
<rect x="157.40" y="291.75" width="56.40" height="13.25" fill="#59A14F" />
<text x="185.60" y="285.75" font-size="10" text-anchor="middle" font-family="Arial">1.99e-05</text>
<text x="185.60" y="325.00" font-size="11" text-anchor="middle" font-family="Arial">RNN</text>
<rect x="231.80" y="179.12" width="56.40" height="125.88" fill="#F28E2B" />
<text x="260.00" y="173.12" font-size="10" text-anchor="middle" font-family="Arial">1.89e-04</text>
<text x="260.00" y="325.00" font-size="11" text-anchor="middle" font-family="Arial">GRU</text>
<rect x="306.20" y="293.38" width="56.40" height="11.62" fill="#E15759" />
<text x="334.40" y="287.38" font-size="10" text-anchor="middle" font-family="Arial">1.75e-05</text>
<text x="334.40" y="325.00" font-size="11" text-anchor="middle" font-family="Arial">Baseline-LR</text>
<rect x="380.60" y="237.26" width="56.40" height="67.74" fill="#4C78A8" />
<text x="408.80" y="231.26" font-size="10" text-anchor="middle" font-family="Arial">1.02e-04</text>
<text x="408.80" y="325.00" font-size="11" text-anchor="middle" font-family="Arial">Transformer</text>
<text x="260.0" y="412" font-size="12" text-anchor="middle" font-family="Arial">Model</text>
<text x="690.0" y="45" font-size="16" text-anchor="middle" font-family="Arial">Testing Loss</text>
<line x1="495" y1="305.00" x2="885" y2="305.00" stroke="#dddddd" stroke-width="1" />
<line x1="495" y1="242.50" x2="885" y2="242.50" stroke="#dddddd" stroke-width="1" />
<line x1="495" y1="180.00" x2="885" y2="180.00" stroke="#dddddd" stroke-width="1" />
<line x1="495" y1="117.50" x2="885" y2="117.50" stroke="#dddddd" stroke-width="1" />
<line x1="495" y1="55.00" x2="885" y2="55.00" stroke="#dddddd" stroke-width="1" />
<line x1="495" y1="55" x2="495" y2="305" stroke="#333333" stroke-width="1" />
<line x1="495" y1="305" x2="885" y2="305" stroke="#333333" stroke-width="1" />
<rect x="513.00" y="293.38" width="56.40" height="11.62" fill="#4C78A8" />
<text x="541.20" y="287.38" font-size="10" text-anchor="middle" font-family="Arial">1.75e-05</text>
<text x="541.20" y="325.00" font-size="11" text-anchor="middle" font-family="Arial">LSTM</text>
<rect x="587.40" y="294.68" width="56.40" height="10.32" fill="#59A14F" />
<text x="615.60" y="288.68" font-size="10" text-anchor="middle" font-family="Arial">1.55e-05</text>
<text x="615.60" y="325.00" font-size="11" text-anchor="middle" font-family="Arial">RNN</text>
<rect x="661.80" y="292.05" width="56.40" height="12.95" fill="#F28E2B" />
<text x="690.00" y="286.05" font-size="10" text-anchor="middle" font-family="Arial">1.95e-05</text>
<text x="690.00" y="325.00" font-size="11" text-anchor="middle" font-family="Arial">GRU</text>
<rect x="736.20" y="292.45" width="56.40" height="12.55" fill="#E15759" />
<text x="764.40" y="286.45" font-size="10" text-anchor="middle" font-family="Arial">1.89e-05</text>
<text x="764.40" y="325.00" font-size="11" text-anchor="middle" font-family="Arial">Baseline-LR</text>
<rect x="810.60" y="290.54" width="56.40" height="14.46" fill="#4C78A8" />
<text x="838.80" y="284.54" font-size="10" text-anchor="middle" font-family="Arial">2.17e-05</text>
<text x="838.80" y="325.00" font-size="11" text-anchor="middle" font-family="Arial">Transformer</text>
<text x="690.0" y="412" font-size="12" text-anchor="middle" font-family="Arial">Model</text>
<text x="1120.0" y="45" font-size="16" text-anchor="middle" font-family="Arial">Validation Loss</text>
<line x1="925" y1="305.00" x2="1315" y2="305.00" stroke="#dddddd" stroke-width="1" />
<line x1="925" y1="242.50" x2="1315" y2="242.50" stroke="#dddddd" stroke-width="1" />
<line x1="925" y1="180.00" x2="1315" y2="180.00" stroke="#dddddd" stroke-width="1" />
<line x1="925" y1="117.50" x2="1315" y2="117.50" stroke="#dddddd" stroke-width="1" />
<line x1="925" y1="55.00" x2="1315" y2="55.00" stroke="#dddddd" stroke-width="1" />
<line x1="925" y1="55" x2="925" y2="305" stroke="#333333" stroke-width="1" />
<line x1="925" y1="305" x2="1315" y2="305" stroke="#333333" stroke-width="1" />
<rect x="943.00" y="277.89" width="56.40" height="27.11" fill="#4C78A8" />
<text x="971.20" y="271.89" font-size="10" text-anchor="middle" font-family="Arial">4.07e-05</text>
<text x="971.20" y="325.00" font-size="11" text-anchor="middle" font-family="Arial">LSTM</text>
<rect x="1017.40" y="275.01" width="56.40" height="29.99" fill="#59A14F" />
<text x="1045.60" y="269.01" font-size="10" text-anchor="middle" font-family="Arial">4.51e-05</text>
<text x="1045.60" y="325.00" font-size="11" text-anchor="middle" font-family="Arial">RNN</text>
<rect x="1091.80" y="273.76" width="56.40" height="31.24" fill="#F28E2B" />
<text x="1120.00" y="267.76" font-size="10" text-anchor="middle" font-family="Arial">4.69e-05</text>
<text x="1120.00" y="325.00" font-size="11" text-anchor="middle" font-family="Arial">GRU</text>
<rect x="1166.20" y="268.44" width="56.40" height="36.56" fill="#E15759" />
<text x="1194.40" y="262.44" font-size="10" text-anchor="middle" font-family="Arial">5.49e-05</text>
<text x="1194.40" y="325.00" font-size="11" text-anchor="middle" font-family="Arial">Baseline-LR</text>
<rect x="1240.60" y="268.12" width="56.40" height="36.88" fill="#4C78A8" />
<text x="1268.80" y="262.12" font-size="10" text-anchor="middle" font-family="Arial">5.54e-05</text>
<text x="1268.80" y="325.00" font-size="11" text-anchor="middle" font-family="Arial">Transformer</text>
<text x="1120.0" y="412" font-size="12" text-anchor="middle" font-family="Arial">Model</text>
</svg>