<svg xmlns="http://www.w3.org/2000/svg" width="1380" height="430" viewBox="0 0 1380 430">
<rect width="100%" height="100%" fill="white" />
<text x="690" y="28" font-size="20" text-anchor="middle" font-family="Arial">Best Tuned Model Losses on a Shared Y-Axis</text>
<text x="25" y="210" font-size="14" text-anchor="middle" transform="rotate(-90 25 210)" font-family="Arial">MSE</text>
<text x="260.0" y="45" font-size="16" text-anchor="middle" font-family="Arial">Training Loss</text>
<line x1="65" y1="305.00" x2="455" y2="305.00" stroke="#dddddd" stroke-width="1" />
<text x="57" y="309.00" font-size="10" text-anchor="end" font-family="Arial">0.00e+00</text>
<line x1="65" y1="242.50" x2="455" y2="242.50" stroke="#dddddd" stroke-width="1" />
<text x="57" y="246.50" font-size="10" text-anchor="end" font-family="Arial">6.80e-05</text>
<line x1="65" y1="180.00" x2="455" y2="180.00" stroke="#dddddd" stroke-width="1" />
<text x="57" y="184.00" font-size="10" text-anchor="end" font-family="Arial">1.36e-04</text>
<line x1="65" y1="117.50" x2="455" y2="117.50" stroke="#dddddd" stroke-width="1" />
<text x="57" y="121.50" font-size="10" text-anchor="end" font-family="Arial">2.04e-04</text>
<line x1="65" y1="55.00" x2="455" y2="55.00" stroke="#dddddd" stroke-width="1" />
<text x="57" y="59.00" font-size="10" text-anchor="end" font-family="Arial">2.72e-04</text>
<line x1="65" y1="55" x2="65" y2="305" stroke="#333333" stroke-width="1" />
<line x1="65" y1="305" x2="455" y2="305" stroke="#333333" stroke-width="1" />
<rect x="83.00" y="304.81" width="75.00" height="0.19" fill="#4C78A8" />
<text x="120.50" y="298.81" font-size="10" text-anchor="middle" font-family="Arial">2.10e-07</text>
<text x="120.50" y="325.00" font-size="11" text-anchor="middle" font-family="Arial">GRU</text>
<rect x="176.00" y="304.61" width="75.00" height="0.39" fill="#59A14F" />
<text x="213.50" y="298.61" font-size="10" text-anchor="middle" font-family="Arial">4.24e-07</text>
<text x="213.50" y="325.00" font-size="11" text-anchor="middle" font-family="Arial">LSTM</text>
<rect x="269.00" y="304.19" width="75.00" height="0.81" fill="#F28E2B" />
<text x="306.50" y="298.19" font-size="10" text-anchor="middle" font-family="Arial">8.79e-07</text>
<text x="306.50" y="325.00" font-size="11" text-anchor="middle" font-family="Arial">RNN</text>
<rect x="362.00" y="66.90" width="75.00" height="238.10" fill="#E15759" />
<text x="399.50" y="60.90" font-size="10" text-anchor="middle" font-family="Arial">2.59e-04</text>
<text x="399.50" y="325.00" font-size="11" text-anchor="middle" font-family="Arial">Transformer</text>
<text x="260.0" y="412" font-size="12" text-anchor="middle" font-family="Arial">Model</text>
<text x="690.0" y="45" font-size="16" text-anchor="middle" font-family="Arial">Testing Loss</text>
<line x1="495" y1="305.00" x2="885" y2="305.00" stroke="#dddddd" stroke-width="1" />
<line x1="495" y1="242.50" x2="885" y2="242.50" stroke="#dddddd" stroke-width="1" />
<line x1="495" y1="180.00" x2="885" y2="180.00" stroke="#dddddd" stroke-width="1" />
<line x1="495" y1="117.50" x2="885" y2="117.50" stroke="#dddddd" stroke-width="1" />
<line x1="495" y1="55.00" x2="885" y2="55.00" stroke="#dddddd" stroke-width="1" />
<line x1="495" y1="55" x2="495" y2="305" stroke="#333333" stroke-width="1" />
<line x1="495" y1="305" x2="885" y2="305" stroke="#333333" stroke-width="1" />
<rect x="513.00" y="304.87" width="75.00" height="0.13" fill="#4C78A8" />
<text x="550.50" y="298.87" font-size="10" text-anchor="middle" font-family="Arial">1.45e-07</text>
<text x="550.50" y="325.00" font-size="11" text-anchor="middle" font-family="Arial">GRU</text>
<rect x="606.00" y="304.69" width="75.00" height="0.31" fill="#59A14F" />
<text x="643.50" y="298.69" font-size="10" text-anchor="middle" font-family="Arial">3.36e-07</text>
<text x="643.50" y="325.00" font-size="11" text-anchor="middle" font-family="Arial">LSTM</text>
<rect x="699.00" y="304.10" width="75.00" height="0.90" fill="#F28E2B" />
<text x="736.50" y="298.10" font-size="10" text-anchor="middle" font-family="Arial">9.80e-07</text>
<text x="736.50" y="325.00" font-size="11" text-anchor="middle" font-family="Arial">RNN</text>
<rect x="792.00" y="295.08" width="75.00" height="9.92" fill="#E15759" />
<text x="829.50" y="289.08" font-size="10" text-anchor="middle" font-family="Arial">1.08e-05</text>
<text x="829.50" y="325.00" font-size="11" text-anchor="middle" font-family="Arial">Transformer</text>
<text x="690.0" y="412" font-size="12" text-anchor="middle" font-family="Arial">Model</text>
<text x="1120.0" y="45" font-size="16" text-anchor="middle" font-family="Arial">Validation Loss</text>
<line x1="925" y1="305.00" x2="1315" y2="305.00" stroke="#dddddd" stroke-width="1" />
<line x1="925" y1="242.50" x2="1315" y2="242.50" stroke="#dddddd" stroke-width="1" />
<line x1="925" y1="180.00" x2="1315" y2="180.00" stroke="#dddddd" stroke-width="1" />
<line x1="925" y1="117.50" x2="1315" y2="117.50" stroke="#dddddd" stroke-width="1" />
<line x1="925" y1="55.00" x2="1315" y2="55.00" stroke="#dddddd" stroke-width="1" />
<line x1="925" y1="55" x2="925" y2="305" stroke="#333333" stroke-width="1" />
<line x1="925" y1="305" x2="1315" y2="305" stroke="#333333" stroke-width="1" />
<rect x="943.00" y="304.25" width="75.00" height="0.75" fill="#4C78A8" />
<text x="980.50" y="298.25" font-size="10" text-anchor="middle" font-family="Arial">8.21e-07</text>
<text x="980.50" y="325.00" font-size="11" text-anchor="middle" font-family="Arial">GRU</text>
<rect x="1036.00" y="304.48" width="75.00" height="0.52" fill="#59A14F" />
<text x="1073.50" y="298.48" font-size="10" text-anchor="middle" font-family="Arial">5.64e-07</text>
<text x="1073.50" y="325.00" font-size="11" text-anchor="middle" font-family="Arial">LSTM</text>
<rect x="1129.00" y="304.05" width="75.00" height="0.95" fill="#F28E2B" />
<text x="1166.50" y="298.05" font-size="10" text-anchor="middle" font-family="Arial">1.04e-06</text>
<text x="1166.50" y="325.00" font-size="11" text-anchor="middle" font-family="Arial">RNN</text>
<rect x="1222.00" y="297.67" width="75.00" height="7.33" fill="#E15759" />
<text x="1259.50" y="291.67" font-size="10" text-anchor="middle" font-family="Arial">7.97e-06</text>
<text x="1259.50" y="325.00" font-size="11" text-anchor="middle" font-family="Arial">Transformer</text>
<text x="1120.0" y="412" font-size="12" text-anchor="middle" font-family="Arial">Model</text>
</svg>