<svg xmlns="http://www.w3.org/2000/svg" width="1380" height="430" viewBox="0 0 1380 430">
<rect width="100%" height="100%" fill="white" />
<text x="690" y="28" font-size="20" text-anchor="middle" font-family="Arial">Best Tuned Model Losses on a Shared Y-Axis</text>
<text x="25" y="210" font-size="14" text-anchor="middle" transform="rotate(-90 25 210)" font-family="Arial">MSE</text>
<text x="260.0" y="45" font-size="16" text-anchor="middle" font-family="Arial">Training Loss</text>
<line x1="65" y1="305.00" x2="455" y2="305.00" stroke="#dddddd" stroke-width="1" />
<text x="57" y="309.00" font-size="10" text-anchor="end" font-family="Arial">0.00e+00</text>
<line x1="65" y1="242.50" x2="455" y2="242.50" stroke="#dddddd" stroke-width="1" />
<text x="57" y="246.50" font-size="10" text-anchor="end" font-family="Arial">9.78e-05</text>
<line x1="65" y1="180.00" x2="455" y2="180.00" stroke="#dddddd" stroke-width="1" />
<text x="57" y="184.00" font-size="10" text-anchor="end" font-family="Arial">1.96e-04</text>
<line x1="65" y1="117.50" x2="455" y2="117.50" stroke="#dddddd" stroke-width="1" />
<text x="57" y="121.50" font-size="10" text-anchor="end" font-family="Arial">2.94e-04</text>
<line x1="65" y1="55.00" x2="455" y2="55.00" stroke="#dddddd" stroke-width="1" />
<text x="57" y="59.00" font-size="10" text-anchor="end" font-family="Arial">3.91e-04</text>
<line x1="65" y1="55" x2="65" y2="305" stroke="#333333" stroke-width="1" />
<line x1="65" y1="305" x2="455" y2="305" stroke="#333333" stroke-width="1" />
<rect x="83.00" y="214.74" width="56.40" height="90.26" fill="#4C78A8" />
<text x="111.20" y="208.74" font-size="10" text-anchor="middle" font-family="Arial">1.41e-04</text>
<text x="111.20" y="325.00" font-size="11" text-anchor="middle" font-family="Arial">LSTM</text>
<rect x="157.40" y="204.67" width="56.40" height="100.33" fill="#59A14F" />
<text x="185.60" y="198.67" font-size="10" text-anchor="middle" font-family="Arial">1.57e-04</text>
<text x="185.60" y="325.00" font-size="11" text-anchor="middle" font-family="Arial">RNN</text>
<rect x="231.80" y="220.02" width="56.40" height="84.98" fill="#F28E2B" />
<text x="260.00" y="214.02" font-size="10" text-anchor="middle" font-family="Arial">1.33e-04</text>
<text x="260.00" y="325.00" font-size="11" text-anchor="middle" font-family="Arial">GRU</text>
<rect x="306.20" y="214.56" width="56.40" height="90.44" fill="#E15759" />
<text x="334.40" y="208.56" font-size="10" text-anchor="middle" font-family="Arial">1.42e-04</text>
<text x="334.40" y="325.00" font-size="11" text-anchor="middle" font-family="Arial">Transformer</text>
<rect x="380.60" y="237.16" width="56.40" height="67.84" fill="#4C78A8" />
<text x="408.80" y="231.16" font-size="10" text-anchor="middle" font-family="Arial">1.06e-04</text>
<text x="408.80" y="325.00" font-size="11" text-anchor="middle" font-family="Arial">Baseline-LR</text>
<text x="260.0" y="412" font-size="12" text-anchor="middle" font-family="Arial">Model</text>
<text x="690.0" y="45" font-size="16" text-anchor="middle" font-family="Arial">Testing Loss</text>
<line x1="495" y1="305.00" x2="885" y2="305.00" stroke="#dddddd" stroke-width="1" />
<line x1="495" y1="242.50" x2="885" y2="242.50" stroke="#dddddd" stroke-width="1" />
<line x1="495" y1="180.00" x2="885" y2="180.00" stroke="#dddddd" stroke-width="1" />
<line x1="495" y1="117.50" x2="885" y2="117.50" stroke="#dddddd" stroke-width="1" />
<line x1="495" y1="55.00" x2="885" y2="55.00" stroke="#dddddd" stroke-width="1" />
<line x1="495" y1="55" x2="495" y2="305" stroke="#333333" stroke-width="1" />
<line x1="495" y1="305" x2="885" y2="305" stroke="#333333" stroke-width="1" />
<rect x="513.00" y="247.39" width="56.40" height="57.61" fill="#4C78A8" />
<text x="541.20" y="241.39" font-size="10" text-anchor="middle" font-family="Arial">9.02e-05</text>
<text x="541.20" y="325.00" font-size="11" text-anchor="middle" font-family="Arial">LSTM</text>
<rect x="587.40" y="236.86" width="56.40" height="68.14" fill="#59A14F" />
<text x="615.60" y="230.86" font-size="10" text-anchor="middle" font-family="Arial">1.07e-04</text>
<text x="615.60" y="325.00" font-size="11" text-anchor="middle" font-family="Arial">RNN</text>
<rect x="661.80" y="239.40" width="56.40" height="65.60" fill="#F28E2B" />
<text x="690.00" y="233.40" font-size="10" text-anchor="middle" font-family="Arial">1.03e-04</text>
<text x="690.00" y="325.00" font-size="11" text-anchor="middle" font-family="Arial">GRU</text>
<rect x="736.20" y="218.75" width="56.40" height="86.25" fill="#E15759" />
<text x="764.40" y="212.75" font-size="10" text-anchor="middle" font-family="Arial">1.35e-04</text>
<text x="764.40" y="325.00" font-size="11" text-anchor="middle" font-family="Arial">Transformer</text>
<rect x="810.60" y="227.27" width="56.40" height="77.73" fill="#4C78A8" />
<text x="838.80" y="221.27" font-size="10" text-anchor="middle" font-family="Arial">1.22e-04</text>
<text x="838.80" y="325.00" font-size="11" text-anchor="middle" font-family="Arial">Baseline-LR</text>
<text x="690.0" y="412" font-size="12" text-anchor="middle" font-family="Arial">Model</text>
<text x="1120.0" y="45" font-size="16" text-anchor="middle" font-family="Arial">Validation Loss</text>
<line x1="925" y1="305.00" x2="1315" y2="305.00" stroke="#dddddd" stroke-width="1" />
<line x1="925" y1="242.50" x2="1315" y2="242.50" stroke="#dddddd" stroke-width="1" />
<line x1="925" y1="180.00" x2="1315" y2="180.00" stroke="#dddddd" stroke-width="1" />
<line x1="925" y1="117.50" x2="1315" y2="117.50" stroke="#dddddd" stroke-width="1" />
<line x1="925" y1="55.00" x2="1315" y2="55.00" stroke="#dddddd" stroke-width="1" />
<line x1="925" y1="55" x2="925" y2="305" stroke="#333333" stroke-width="1" />
<line x1="925" y1="305" x2="1315" y2="305" stroke="#333333" stroke-width="1" />
<rect x="943.00" y="150.25" width="56.40" height="154.75" fill="#4C78A8" />
<text x="971.20" y="144.25" font-size="10" text-anchor="middle" font-family="Arial">2.42e-04</text>
<text x="971.20" y="325.00" font-size="11" text-anchor="middle" font-family="Arial">LSTM</text>
<rect x="1017.40" y="133.33" width="56.40" height="171.67" fill="#59A14F" />
<text x="1045.60" y="127.33" font-size="10" text-anchor="middle" font-family="Arial">2.69e-04</text>
<text x="1045.60" y="325.00" font-size="11" text-anchor="middle" font-family="Arial">RNN</text>
<rect x="1091.80" y="129.45" width="56.40" height="175.55" fill="#F28E2B" />
<text x="1120.00" y="123.45" font-size="10" text-anchor="middle" font-family="Arial">2.75e-04</text>
<text x="1120.00" y="325.00" font-size="11" text-anchor="middle" font-family="Arial">GRU</text>
<rect x="1166.20" y="85.41" width="56.40" height="219.59" fill="#E15759" />
<text x="1194.40" y="79.41" font-size="10" text-anchor="middle" font-family="Arial">3.44e-04</text>
<text x="1194.40" y="325.00" font-size="11" text-anchor="middle" font-family="Arial">Transformer</text>
<rect x="1240.60" y="66.90" width="56.40" height="238.10" fill="#4C78A8" />
<text x="1268.80" y="60.90" font-size="10" text-anchor="middle" font-family="Arial">3.73e-04</text>
<text x="1268.80" y="325.00" font-size="11" text-anchor="middle" font-family="Arial">Baseline-LR</text>
<text x="1120.0" y="412" font-size="12" text-anchor="middle" font-family="Arial">Model</text>
</svg>