<svg xmlns="http://www.w3.org/2000/svg" width="1380" height="430" viewBox="0 0 1380 430">
<rect width="100%" height="100%" fill="white" />
<text x="690" y="28" font-size="20" text-anchor="middle" font-family="Arial">Best Tuned Model Losses on a Shared Y-Axis</text>
<text x="25" y="210" font-size="14" text-anchor="middle" transform="rotate(-90 25 210)" font-family="Arial">MSE</text>
<text x="260.0" y="45" font-size="16" text-anchor="middle" font-family="Arial">Training Loss</text>
<line x1="65" y1="305.00" x2="455" y2="305.00" stroke="#dddddd" stroke-width="1" />
<text x="57" y="309.00" font-size="10" text-anchor="end" font-family="Arial">0.00e+00</text>
<line x1="65" y1="242.50" x2="455" y2="242.50" stroke="#dddddd" stroke-width="1" />
<text x="57" y="246.50" font-size="10" text-anchor="end" font-family="Arial">9.78e-05</text>
<line x1="65" y1="180.00" x2="455" y2="180.00" stroke="#dddddd" stroke-width="1" />
<text x="57" y="184.00" font-size="10" text-anchor="end" font-family="Arial">1.96e-04</text>
<line x1="65" y1="117.50" x2="455" y2="117.50" stroke="#dddddd" stroke-width="1" />
<text x="57" y="121.50" font-size="10" text-anchor="end" font-family="Arial">2.93e-04</text>
<line x1="65" y1="55.00" x2="455" y2="55.00" stroke="#dddddd" stroke-width="1" />
<text x="57" y="59.00" font-size="10" text-anchor="end" font-family="Arial">3.91e-04</text>
<line x1="65" y1="55" x2="65" y2="305" stroke="#333333" stroke-width="1" />
<line x1="65" y1="305" x2="455" y2="305" stroke="#333333" stroke-width="1" />
<rect x="83.00" y="237.11" width="56.40" height="67.89" fill="#4C78A8" />
<text x="111.20" y="231.11" font-size="10" text-anchor="middle" font-family="Arial">1.06e-04</text>
<text x="111.20" y="325.00" font-size="11" text-anchor="middle" font-family="Arial">Baseline-LR</text>
<rect x="157.40" y="217.60" width="56.40" height="87.40" fill="#59A14F" />
<text x="185.60" y="211.60" font-size="10" text-anchor="middle" font-family="Arial">1.37e-04</text>
<text x="185.60" y="325.00" font-size="11" text-anchor="middle" font-family="Arial">GRU</text>
<rect x="231.80" y="213.27" width="56.40" height="91.73" fill="#F28E2B" />
<text x="260.00" y="207.27" font-size="10" text-anchor="middle" font-family="Arial">1.44e-04</text>
<text x="260.00" y="325.00" font-size="11" text-anchor="middle" font-family="Arial">LSTM</text>
<rect x="306.20" y="224.19" width="56.40" height="80.81" fill="#E15759" />
<text x="334.40" y="218.19" font-size="10" text-anchor="middle" font-family="Arial">1.26e-04</text>
<text x="334.40" y="325.00" font-size="11" text-anchor="middle" font-family="Arial">RNN</text>
<rect x="380.60" y="81.10" width="56.40" height="223.90" fill="#4C78A8" />
<text x="408.80" y="75.10" font-size="10" text-anchor="middle" font-family="Arial">3.50e-04</text>
<text x="408.80" y="325.00" font-size="11" text-anchor="middle" font-family="Arial">Transformer</text>
<text x="260.0" y="412" font-size="12" text-anchor="middle" font-family="Arial">Model</text>
<text x="690.0" y="45" font-size="16" text-anchor="middle" font-family="Arial">Testing Loss</text>
<line x1="495" y1="305.00" x2="885" y2="305.00" stroke="#dddddd" stroke-width="1" />
<line x1="495" y1="242.50" x2="885" y2="242.50" stroke="#dddddd" stroke-width="1" />
<line x1="495" y1="180.00" x2="885" y2="180.00" stroke="#dddddd" stroke-width="1" />
<line x1="495" y1="117.50" x2="885" y2="117.50" stroke="#dddddd" stroke-width="1" />
<line x1="495" y1="55.00" x2="885" y2="55.00" stroke="#dddddd" stroke-width="1" />
<line x1="495" y1="55" x2="495" y2="305" stroke="#333333" stroke-width="1" />
<line x1="495" y1="305" x2="885" y2="305" stroke="#333333" stroke-width="1" />
<rect x="513.00" y="226.64" width="56.40" height="78.36" fill="#4C78A8" />
<text x="541.20" y="220.64" font-size="10" text-anchor="middle" font-family="Arial">1.23e-04</text>
<text x="541.20" y="325.00" font-size="11" text-anchor="middle" font-family="Arial">Baseline-LR</text>
<rect x="587.40" y="245.74" width="56.40" height="59.26" fill="#59A14F" />
<text x="615.60" y="239.74" font-size="10" text-anchor="middle" font-family="Arial">9.27e-05</text>
<text x="615.60" y="325.00" font-size="11" text-anchor="middle" font-family="Arial">GRU</text>
<rect x="661.80" y="245.59" width="56.40" height="59.41" fill="#F28E2B" />
<text x="690.00" y="239.59" font-size="10" text-anchor="middle" font-family="Arial">9.30e-05</text>
<text x="690.00" y="325.00" font-size="11" text-anchor="middle" font-family="Arial">LSTM</text>
<rect x="736.20" y="232.16" width="56.40" height="72.84" fill="#E15759" />
<text x="764.40" y="226.16" font-size="10" text-anchor="middle" font-family="Arial">1.14e-04</text>
<text x="764.40" y="325.00" font-size="11" text-anchor="middle" font-family="Arial">RNN</text>
<rect x="810.60" y="224.78" width="56.40" height="80.22" fill="#4C78A8" />
<text x="838.80" y="218.78" font-size="10" text-anchor="middle" font-family="Arial">1.26e-04</text>
<text x="838.80" y="325.00" font-size="11" text-anchor="middle" font-family="Arial">Transformer</text>
<text x="690.0" y="412" font-size="12" text-anchor="middle" font-family="Arial">Model</text>
<text x="1120.0" y="45" font-size="16" text-anchor="middle" font-family="Arial">Validation Loss</text>
<line x1="925" y1="305.00" x2="1315" y2="305.00" stroke="#dddddd" stroke-width="1" />
<line x1="925" y1="242.50" x2="1315" y2="242.50" stroke="#dddddd" stroke-width="1" />
<line x1="925" y1="180.00" x2="1315" y2="180.00" stroke="#dddddd" stroke-width="1" />
<line x1="925" y1="117.50" x2="1315" y2="117.50" stroke="#dddddd" stroke-width="1" />
<line x1="925" y1="55.00" x2="1315" y2="55.00" stroke="#dddddd" stroke-width="1" />
<line x1="925" y1="55" x2="925" y2="305" stroke="#333333" stroke-width="1" />
<line x1="925" y1="305" x2="1315" y2="305" stroke="#333333" stroke-width="1" />
<rect x="943.00" y="66.90" width="56.40" height="238.10" fill="#4C78A8" />
<text x="971.20" y="60.90" font-size="10" text-anchor="middle" font-family="Arial">3.73e-04</text>
<text x="971.20" y="325.00" font-size="11" text-anchor="middle" font-family="Arial">Baseline-LR</text>
<rect x="1017.40" y="146.44" width="56.40" height="158.56" fill="#59A14F" />
<text x="1045.60" y="140.44" font-size="10" text-anchor="middle" font-family="Arial">2.48e-04</text>
<text x="1045.60" y="325.00" font-size="11" text-anchor="middle" font-family="Arial">GRU</text>
<rect x="1091.80" y="149.26" width="56.40" height="155.74" fill="#F28E2B" />
<text x="1120.00" y="143.26" font-size="10" text-anchor="middle" font-family="Arial">2.44e-04</text>
<text x="1120.00" y="325.00" font-size="11" text-anchor="middle" font-family="Arial">LSTM</text>
<rect x="1166.20" y="133.06" width="56.40" height="171.94" fill="#E15759" />
<text x="1194.40" y="127.06" font-size="10" text-anchor="middle" font-family="Arial">2.69e-04</text>
<text x="1194.40" y="325.00" font-size="11" text-anchor="middle" font-family="Arial">RNN</text>
<rect x="1240.60" y="126.53" width="56.40" height="178.47" fill="#4C78A8" />
<text x="1268.80" y="120.53" font-size="10" text-anchor="middle" font-family="Arial">2.79e-04</text>
<text x="1268.80" y="325.00" font-size="11" text-anchor="middle" font-family="Arial">Transformer</text>
<text x="1120.0" y="412" font-size="12" text-anchor="middle" font-family="Arial">Model</text>
</svg>