<svg xmlns="http://www.w3.org/2000/svg" width="960" height="540" viewBox="0 0 960 540"><style>text{font-family:Arial,sans-serif;fill:#1f2933}.title{font-size:24px;font-weight:bold}.axis{font-size:14px}.label{font-size:13px}.value{font-size:12px}.grid{stroke:#d9e2ec;stroke-width:1}.axis-line{stroke:#52606d;stroke-width:2}</style><rect width="960" height="540" fill="white" /><text x="480.0" y="36" text-anchor="middle" class="title">Testing Loss (MSE)</text><line x1="100" y1="420.00" x2="920" y2="420.00" class="grid" /><text x="88" y="425.00" text-anchor="end" class="axis">0</text><line x1="100" y1="350.00" x2="920" y2="350.00" class="grid" /><text x="88" y="355.00" text-anchor="end" class="axis">2.33e-06</text><line x1="100" y1="280.00" x2="920" y2="280.00" class="grid" /><text x="88" y="285.00" text-anchor="end" class="axis">4.66e-06</text><line x1="100" y1="210.00" x2="920" y2="210.00" class="grid" /><text x="88" y="215.00" text-anchor="end" class="axis">6.99e-06</text><line x1="100" y1="140.00" x2="920" y2="140.00" class="grid" /><text x="88" y="145.00" text-anchor="end" class="axis">9.32e-06</text><line x1="100" y1="70.00" x2="920" y2="70.00" class="grid" /><text x="88" y="75.00" text-anchor="end" class="axis">1.17e-05</text><line x1="100" y1="420" x2="920" y2="420" class="axis-line" /><line x1="100" y1="70" x2="100" y2="420" class="axis-line" /><rect x="101.50" y="418.56" width="149" height="1.44" fill="#F58518" stroke="#1f2933" /><text x="176.00" y="410.56" text-anchor="middle" class="value">4.81e-08</text><text x="176.00" y="444.00" text-anchor="end" transform="rotate(-25 176.00 444.00)" class="label">Baseline-LR</text><rect x="268.50" y="416.67" width="149" height="3.33" fill="#F58518" stroke="#1f2933" /><text x="343.00" y="408.67" text-anchor="middle" class="value">1.11e-07</text><text x="343.00" y="444.00" text-anchor="end" transform="rotate(-25 343.00 444.00)" class="label">LSTM</text><rect x="435.50" y="315.51" width="149" height="104.49" fill="#F58518" stroke="#1f2933" /><text x="510.00" y="307.51" text-anchor="middle" class="value">3.48e-06</text><text x="510.00" y="444.00" text-anchor="end" transform="rotate(-25 510.00 444.00)" class="label">RNN</text><rect x="602.50" y="303.99" width="149" height="116.01" fill="#F58518" stroke="#1f2933" /><text x="677.00" y="295.99" text-anchor="middle" class="value">3.86e-06</text><text x="677.00" y="444.00" text-anchor="end" transform="rotate(-25 677.00 444.00)" class="label">GRU</text><rect x="769.50" y="101.82" width="149" height="318.18" fill="#F58518" stroke="#1f2933" /><text x="844.00" y="93.82" text-anchor="middle" class="value">1.06e-05</text><text x="844.00" y="444.00" text-anchor="end" transform="rotate(-25 844.00 444.00)" class="label">Transformer</text><text x="510.0" y="510" text-anchor="middle" class="axis">Model</text><text x="24" y="245.0" text-anchor="middle" transform="rotate(-90 24 245.0)" class="axis">MSE</text></svg>